G04*
G04 #@! TF.GenerationSoftware,Altium Limited,Altium Designer,21.6.1 (37)*
G04*
G04 Layer_Physical_Order=1*
G04 Layer_Color=255*
%FSAX24Y24*%
%MOIN*%
G70*
G04*
G04 #@! TF.SameCoordinates,F5C88182-2F8C-44A9-A90F-F64FCCDA4292*
G04*
G04*
G04 #@! TF.FilePolarity,Positive*
G04*
G01*
G75*
%ADD14C,0.0100*%
%ADD18C,0.0150*%
%ADD29C,0.0600*%
%ADD45C,0.0472*%
%ADD46R,0.0472X0.0472*%
%ADD47R,0.0600X0.0600*%
%ADD55R,0.0472X0.0472*%
%ADD59C,0.0580*%
%ADD60C,0.0500*%
%ADD61C,0.0120*%
%ADD62C,0.0200*%
%ADD63C,0.0768*%
%ADD64C,0.0650*%
%ADD65O,0.0594X0.0600*%
%ADD66C,0.1000*%
%ADD67C,0.0476*%
%ADD68C,0.0520*%
%ADD69R,0.0700X0.0900*%
%ADD70O,0.0700X0.0900*%
%ADD71C,0.0591*%
%ADD72R,0.0591X0.0591*%
%ADD73C,0.1260*%
%ADD74R,0.0600X0.0600*%
%ADD75O,0.0650X0.1000*%
%ADD76R,0.0650X0.1000*%
%ADD77O,0.1000X0.0650*%
%ADD78R,0.1000X0.0650*%
%ADD79R,0.1102X0.1102*%
%ADD80C,0.1102*%
%ADD81C,0.0512*%
%ADD82R,0.0512X0.0512*%
%ADD83R,0.0600X0.0380*%
%ADD84O,0.0600X0.0380*%
%ADD85C,0.0750*%
%ADD86O,0.0650X0.0380*%
%ADD87R,0.0650X0.0380*%
%ADD88R,0.0531X0.0531*%
%ADD89C,0.0531*%
%ADD90R,0.0512X0.0512*%
%ADD91P,0.4330X8X22.5*%
%ADD92C,0.1250*%
%ADD93C,0.0500*%
%ADD94C,0.0300*%
G36*
X014892Y015708D02*
Y013538D01*
X014871Y013532D01*
X014765Y013471D01*
X014679Y013385D01*
X014618Y013279D01*
X014586Y013161D01*
Y013039D01*
X014618Y012921D01*
X014679Y012815D01*
X014765Y012729D01*
X014871Y012668D01*
X014989Y012636D01*
X015111D01*
X015229Y012668D01*
X015335Y012729D01*
X015421Y012815D01*
X015482Y012921D01*
X015514Y013039D01*
Y013161D01*
X015482Y013279D01*
X015421Y013385D01*
X015335Y013471D01*
X015229Y013532D01*
X015208Y013538D01*
Y013674D01*
X015657D01*
Y013501D01*
X015657Y013501D01*
X015668Y013446D01*
X015697Y013403D01*
X015679Y013385D01*
X015618Y013279D01*
X015586Y013161D01*
Y013039D01*
X015618Y012921D01*
X015679Y012815D01*
X015765Y012729D01*
X015871Y012668D01*
X015989Y012636D01*
X016111D01*
X016229Y012668D01*
X016335Y012729D01*
X016421Y012815D01*
X016482Y012921D01*
X016514Y013039D01*
Y013161D01*
X016482Y013279D01*
X016421Y013385D01*
X016335Y013471D01*
X016229Y013532D01*
X016111Y013564D01*
X015989D01*
X015943Y013603D01*
Y013674D01*
X016276D01*
X016600Y013400D01*
Y013213D01*
X016586Y013161D01*
Y013039D01*
X016600Y012987D01*
Y012213D01*
X016586Y012161D01*
Y012039D01*
X016600Y011987D01*
Y011000D01*
X016000Y010400D01*
X011200D01*
X009000Y012600D01*
Y012837D01*
X009050Y012847D01*
X009071Y012796D01*
X009136Y012711D01*
X009221Y012646D01*
X009319Y012605D01*
X009425Y012592D01*
X009775D01*
X009881Y012605D01*
X009979Y012646D01*
X010064Y012711D01*
X010129Y012796D01*
X010170Y012894D01*
X010184Y013000D01*
X010170Y013106D01*
X010129Y013204D01*
X010064Y013289D01*
X009979Y013354D01*
X009881Y013395D01*
X009775Y013408D01*
X009425D01*
X009319Y013395D01*
X009221Y013354D01*
X009136Y013289D01*
X009071Y013204D01*
X009050Y013153D01*
X009000Y013163D01*
Y013837D01*
X009050Y013847D01*
X009071Y013796D01*
X009136Y013711D01*
X009221Y013646D01*
X009319Y013605D01*
X009425Y013592D01*
X009775D01*
X009881Y013605D01*
X009979Y013646D01*
X010064Y013711D01*
X010129Y013796D01*
X010170Y013894D01*
X010184Y014000D01*
X010170Y014106D01*
X010129Y014204D01*
X010064Y014289D01*
X009979Y014354D01*
X009881Y014395D01*
X009775Y014409D01*
X009425D01*
X009319Y014395D01*
X009221Y014354D01*
X009136Y014289D01*
X009071Y014204D01*
X009050Y014153D01*
X009000Y014163D01*
Y016287D01*
X009313Y016600D01*
X014000D01*
X014892Y015708D01*
D02*
G37*
%LPC*%
G36*
X013122Y013830D02*
X012978D01*
X012837Y013802D01*
X012704Y013747D01*
X012585Y013667D01*
X012483Y013565D01*
X012403Y013446D01*
X012348Y013313D01*
X012320Y013172D01*
Y013028D01*
X012348Y012887D01*
X012403Y012754D01*
X012483Y012635D01*
X012585Y012533D01*
X012704Y012453D01*
X012837Y012398D01*
X012978Y012370D01*
X013122D01*
X013263Y012398D01*
X013396Y012453D01*
X013515Y012533D01*
X013617Y012635D01*
X013697Y012754D01*
X013752Y012887D01*
X013780Y013028D01*
Y013172D01*
X013752Y013313D01*
X013697Y013446D01*
X013617Y013565D01*
X013515Y013667D01*
X013396Y013747D01*
X013263Y013802D01*
X013122Y013830D01*
D02*
G37*
G36*
X015111Y012564D02*
X014989D01*
X014871Y012532D01*
X014765Y012471D01*
X014679Y012385D01*
X014618Y012279D01*
X014586Y012161D01*
Y012039D01*
X014618Y011921D01*
X014679Y011815D01*
X014765Y011729D01*
X014871Y011668D01*
X014989Y011636D01*
X015111D01*
X015229Y011668D01*
X015335Y011729D01*
X015421Y011815D01*
X015482Y011921D01*
X015514Y012039D01*
Y012161D01*
X015482Y012279D01*
X015421Y012385D01*
X015335Y012471D01*
X015229Y012532D01*
X015111Y012564D01*
D02*
G37*
%LPD*%
G54D14*
X017551Y012599D02*
X018050Y012100D01*
X017551Y012599D02*
Y013449D01*
X020550Y012600D02*
Y013954D01*
Y012600D02*
X021050Y012100D01*
X016200Y014800D02*
X017551Y013449D01*
X017922Y013228D02*
X018050Y013100D01*
X017200Y014200D02*
X017922Y013478D01*
Y013228D02*
Y013478D01*
X024650Y030787D02*
X024900Y030537D01*
X025547Y012597D02*
Y013547D01*
X025050Y012100D02*
X025547Y012597D01*
X022050Y012100D02*
X022544Y012594D01*
Y013744D01*
X023050Y012100D02*
X023549Y012599D01*
Y013851D01*
X025050Y013100D02*
X025152Y013202D01*
X024544Y012594D02*
Y013744D01*
X024050Y012100D02*
X024544Y012594D01*
G54D18*
X013166Y040600D02*
X016800D01*
X017787Y041587D02*
Y042945D01*
X016800Y040600D02*
X017787Y041587D01*
X018787Y041987D02*
Y042945D01*
X013450Y040000D02*
X016800D01*
X018787Y041987D01*
X011250Y040800D02*
X012200D01*
X013000Y041600D01*
X009700Y039250D02*
X011250Y040800D01*
X013000Y041600D02*
X013442D01*
X014787Y042945D01*
X011661Y040211D02*
X012211D01*
X013090Y041090D02*
X014690D01*
X012211Y040211D02*
X013090Y041090D01*
X011816Y039250D02*
X013166Y040600D01*
X011700Y039250D02*
X011816D01*
X012700D02*
X013450Y040000D01*
X032772Y035800D02*
X035600Y032972D01*
X032756Y035800D02*
X032772D01*
X029956Y038600D02*
X032756Y035800D01*
X027350Y038600D02*
X029956D01*
X035375Y033197D02*
X035400Y033172D01*
X035359Y033197D02*
X035375D01*
X035400Y032972D02*
Y033172D01*
X035386Y024614D02*
X035600D01*
X034214D02*
X035386D01*
X035772Y028000D02*
X037200D01*
X035600Y028172D02*
X035772Y028000D01*
X036372Y016172D02*
X037600Y017401D01*
Y019828D01*
X005329Y026600D02*
X008000D01*
X009000Y027600D01*
X008000Y036200D02*
X008700Y036900D01*
Y039250D01*
X022000Y015434D02*
Y018400D01*
X021000Y016000D02*
Y018400D01*
X022050Y013100D02*
Y014950D01*
X022000Y015434D02*
X022544Y014890D01*
X021000Y016000D02*
X022050Y014950D01*
X034200Y024600D02*
X034214Y024614D01*
X035386D02*
X035400Y024628D01*
Y028172D02*
X035572Y028000D01*
X037200Y027500D02*
X038480Y026220D01*
X038000Y022012D02*
X038480Y022492D01*
Y026220D01*
X038000Y020228D02*
Y022012D01*
X037600Y019828D02*
X038000Y020228D01*
X015050Y022050D02*
X017800Y024800D01*
X015050Y013100D02*
Y022050D01*
X016200Y014800D02*
Y021600D01*
X036372Y014400D02*
Y016172D01*
X036730Y032972D02*
X036800Y032901D01*
X035600Y032972D02*
X036730D01*
X035270Y029098D02*
X035600Y029428D01*
X031200Y030600D02*
X032702Y029098D01*
X035270D01*
X029800Y031972D02*
X029991Y032162D01*
X028870Y031972D02*
X029800D01*
X028600Y031701D02*
X028870Y031972D01*
X029991Y032162D02*
Y032241D01*
X030000Y032250D01*
Y037000D01*
X017200Y014200D02*
Y021000D01*
X019400Y023200D01*
X028800Y038200D02*
X030000Y037000D01*
X027228Y036628D02*
X029400D01*
X025600Y035000D02*
X027228Y036628D01*
X016701Y042859D02*
X016787Y042945D01*
X016459Y042859D02*
X016701D01*
X014690Y041090D02*
X016459Y042859D01*
X018400Y040800D02*
X018642D01*
X020787Y042945D01*
X017200Y039600D02*
X018400Y040800D01*
X017200Y034750D02*
Y039600D01*
X026750Y038200D02*
X028800D01*
X025700Y039250D02*
X026750Y038200D01*
X026700Y039250D02*
X027350Y038600D01*
X016200Y021600D02*
X018600Y024000D01*
X023025Y016975D02*
Y018375D01*
X025000Y014800D02*
Y018400D01*
X026000Y015400D02*
Y015600D01*
Y018400D01*
X027000Y015400D02*
Y018400D01*
X027972Y016800D02*
Y018372D01*
X028000Y018400D01*
X010700Y039250D02*
X011661Y040211D01*
X013043Y042200D02*
X013787Y042945D01*
X009650Y042200D02*
X013043D01*
X009150Y041700D02*
X009650Y042200D01*
X028000Y015200D02*
Y016600D01*
X027000Y014200D02*
X028000Y015200D01*
X025152Y013552D02*
X027000Y015400D01*
X024681Y035860D02*
Y038223D01*
X023200Y034379D02*
X024681Y035860D01*
X022700Y033250D02*
X023200Y033750D01*
Y034379D01*
X024681Y038223D02*
X025200Y038742D01*
Y039620D01*
X025787Y040207D02*
Y042945D01*
X025200Y039620D02*
X025787Y040207D01*
X021226Y036895D02*
X021712Y037382D01*
Y038262D02*
X022700Y039250D01*
X021712Y037382D02*
Y038262D01*
X021226Y031212D02*
Y036895D01*
X021800Y033553D02*
Y036800D01*
X022696Y037696D01*
X021782Y033332D02*
Y033535D01*
X021800Y033553D01*
X021700Y033250D02*
X021782Y033332D01*
X024710Y030728D02*
X024900Y030537D01*
X022247Y032953D02*
X024472Y030728D01*
X024710D01*
X021226Y031212D02*
X021900Y030537D01*
X015700Y033250D02*
X017200Y034750D01*
X022247Y035349D02*
X023700Y036802D01*
X022247Y032953D02*
Y035349D01*
X023700Y036802D02*
Y039250D01*
X025547Y013547D02*
X026200Y014200D01*
X025152Y013202D02*
Y013552D01*
X026000Y015200D02*
Y015600D01*
X024050Y013100D02*
Y013850D01*
X025000Y014800D01*
X024544Y013744D02*
X026000Y015200D01*
X026200Y014200D02*
X027000D01*
X023189Y039621D02*
X024787Y041220D01*
X023189Y038824D02*
Y039621D01*
X024787Y041220D02*
Y042945D01*
X022696Y038331D02*
X023189Y038824D01*
X022696Y037696D02*
Y038331D01*
X025600Y034150D02*
Y035000D01*
X024700Y033250D02*
X025600Y034150D01*
X023549Y013851D02*
Y016374D01*
X024000Y016825D01*
X022544Y013744D02*
Y014890D01*
X024000Y016825D02*
Y018400D01*
X023025Y013125D02*
Y016975D01*
X028524Y043087D02*
X028666Y042945D01*
X028524Y043087D02*
X028524D01*
X008932Y043482D02*
X028129D01*
X028419Y043192D01*
Y043192D02*
X028524Y043087D01*
X028419Y043192D02*
Y043192D01*
X028666Y042945D02*
X028787D01*
X008150Y042700D02*
X008932Y043482D01*
X022000Y042250D02*
X022695Y042945D01*
X022787D01*
X021296Y042250D02*
X022000D01*
X018700Y039654D02*
X021296Y042250D01*
X018700Y039250D02*
Y039654D01*
X020700Y039250D02*
Y039857D01*
X023787Y042945D01*
G54D29*
X011787D02*
D03*
X012787D02*
D03*
X013787D02*
D03*
X014787D02*
D03*
X015787D02*
D03*
X016787D02*
D03*
X017787D02*
D03*
X018787D02*
D03*
X019787D02*
D03*
X020787D02*
D03*
X021787D02*
D03*
X022787D02*
D03*
X023787D02*
D03*
X024787D02*
D03*
X025787D02*
D03*
X026787D02*
D03*
X027787D02*
D03*
X028787D02*
D03*
X029787D02*
D03*
X030787D02*
D03*
X031787D02*
D03*
X024900Y027463D02*
D03*
X023900D02*
D03*
X022900D02*
D03*
X021900D02*
D03*
Y030537D02*
D03*
X022900D02*
D03*
X023900D02*
D03*
X010150Y008700D02*
D03*
X009650Y009700D02*
D03*
X008150Y008700D02*
D03*
X008650Y009700D02*
D03*
X009150Y008700D02*
D03*
X029400Y036628D02*
D03*
Y040172D02*
D03*
X036800Y029899D02*
D03*
X035600Y029428D02*
D03*
X029800Y025372D02*
D03*
X014000Y020572D02*
D03*
X038000Y020228D02*
D03*
X036800Y023772D02*
D03*
X035600Y022572D02*
D03*
X016743Y017299D02*
D03*
X012800Y017499D02*
D03*
X032828Y014400D02*
D03*
X028600Y028699D02*
D03*
X029800Y028428D02*
D03*
X015600Y020572D02*
D03*
Y017028D02*
D03*
X018000D02*
D03*
Y020572D02*
D03*
X026600Y027228D02*
D03*
Y030772D02*
D03*
X031200Y038143D02*
D03*
Y034600D02*
D03*
X026028Y015400D02*
D03*
X029572D02*
D03*
X028000Y016800D02*
D03*
X031543D02*
D03*
G54D45*
X028308Y026600D02*
D03*
X033000Y016692D02*
D03*
X011892Y041400D02*
D03*
X036400Y018000D02*
D03*
G54D46*
X029292Y026600D02*
D03*
X010908Y041400D02*
D03*
X035416Y018000D02*
D03*
G54D47*
X024900Y030537D02*
D03*
X036800Y032901D02*
D03*
X035600Y032972D02*
D03*
X029800Y021828D02*
D03*
X014000Y017028D02*
D03*
X038000Y023772D02*
D03*
X036800Y020228D02*
D03*
X035600Y019028D02*
D03*
X016743Y020301D02*
D03*
X012800Y020501D02*
D03*
X028600Y031701D02*
D03*
X029800Y031972D02*
D03*
G54D55*
X033000Y015708D02*
D03*
G54D59*
X021200Y038000D02*
D03*
X022200D02*
D03*
X023200D02*
D03*
X024200D02*
D03*
X025200D02*
D03*
X022700Y034250D02*
D03*
X023700D02*
D03*
X024700D02*
D03*
X026700D02*
D03*
X009700D02*
D03*
Y037250D02*
D03*
Y035250D02*
D03*
Y036250D02*
D03*
Y038250D02*
D03*
X012700Y033250D02*
D03*
X011700D02*
D03*
X010700D02*
D03*
X009700D02*
D03*
X008700D02*
D03*
X007700D02*
D03*
X006700D02*
D03*
X005700D02*
D03*
X004700D02*
D03*
Y039250D02*
D03*
X005700D02*
D03*
X006700D02*
D03*
X007700D02*
D03*
X008700D02*
D03*
X009700D02*
D03*
X010700D02*
D03*
X011700D02*
D03*
X012700D02*
D03*
X013700Y033250D02*
D03*
Y039250D02*
D03*
X027700Y033250D02*
D03*
Y039250D02*
D03*
X026700Y033250D02*
D03*
X025700D02*
D03*
X026700Y039250D02*
D03*
X024700Y033250D02*
D03*
X023700D02*
D03*
X022700D02*
D03*
X021700D02*
D03*
X020700D02*
D03*
X019700D02*
D03*
X018700D02*
D03*
X017700D02*
D03*
X016700D02*
D03*
X015700D02*
D03*
X014700D02*
D03*
Y039250D02*
D03*
X015700D02*
D03*
X016700D02*
D03*
X017700D02*
D03*
X018700D02*
D03*
X019700D02*
D03*
X020700D02*
D03*
X021700D02*
D03*
X022700D02*
D03*
X023700D02*
D03*
X024700D02*
D03*
X025700D02*
D03*
G54D60*
X013400Y009800D02*
X030091D01*
X032200Y011909D01*
X009600Y015000D02*
Y016000D01*
X027697Y027195D02*
X028300Y026592D01*
X029308Y027600D02*
X031200D01*
X028308Y026600D02*
X029308Y027600D01*
X032828Y012537D02*
Y014400D01*
X032200Y011909D02*
X032828Y012537D01*
X035600Y015256D02*
X035766Y015422D01*
X035600Y010200D02*
Y015256D01*
X029572Y015400D02*
Y018228D01*
X035600Y010200D02*
X039200Y006600D01*
X035766Y015422D02*
Y017634D01*
X020000Y016000D02*
X021050Y014950D01*
X020000Y016000D02*
Y017875D01*
X021050Y013100D02*
Y014950D01*
X035400Y018000D02*
X035766Y017634D01*
X028700Y019100D02*
Y023100D01*
Y019100D02*
X029572Y018228D01*
X021800Y020600D02*
X028693D01*
X028300Y023500D02*
X028700Y023100D01*
X028300Y023500D02*
Y026592D01*
X009600Y014000D02*
X009629Y013971D01*
X032794Y005000D02*
X037300D01*
X039200D02*
Y006600D01*
X032285Y004491D02*
X032794Y005000D01*
X032200Y004491D02*
X032285D01*
X029572Y018228D02*
X029800Y018000D01*
X029600Y016800D02*
X031543D01*
X029800Y018000D02*
X035400D01*
X020075Y018875D02*
X021800Y020600D01*
X020075Y018475D02*
Y018875D01*
X020000Y018400D02*
X020075Y018475D01*
X027700Y027198D02*
Y033250D01*
X027697Y027195D02*
X027700Y027198D01*
G54D61*
X037777Y040200D02*
X042592D01*
X042752Y040360D02*
X042860D01*
X029800Y020700D02*
Y021828D01*
Y020625D02*
Y020700D01*
X004198Y032802D02*
Y037748D01*
Y032802D02*
X007600Y029400D01*
X004198Y037748D02*
X005700Y039250D01*
X015200Y029400D02*
X022222Y022378D01*
X009700Y032500D02*
Y033250D01*
X010200Y032000D02*
X016600D01*
X009700Y032500D02*
X010200Y032000D01*
X008700Y032700D02*
X010000Y031400D01*
X016600D01*
X008700Y032700D02*
Y033250D01*
X007700Y032700D02*
X009400Y031000D01*
X007700Y032700D02*
Y033250D01*
X004700D02*
X004737Y033213D01*
Y032863D02*
X007800Y029800D01*
X004737Y032863D02*
Y033213D01*
X007800Y029800D02*
X015600D01*
X005700Y032700D02*
X008200Y030200D01*
X016004D01*
X005700Y032700D02*
Y033250D01*
X006700Y032500D02*
Y033250D01*
X008600Y030600D02*
X016327D01*
X006700Y032500D02*
X008600Y030600D01*
X009400Y031000D02*
X016431D01*
X014600Y029000D02*
X021000Y022600D01*
X003800Y032600D02*
X007400Y029000D01*
X014600D01*
X007600Y029400D02*
X015200D01*
X015600Y029800D02*
X022675Y022725D01*
X016327Y030600D02*
X023527Y023400D01*
X016431Y031000D02*
X023631Y023800D01*
X016600Y032000D02*
X024000Y024600D01*
X016600Y031400D02*
X023800Y024200D01*
X034015Y036438D02*
X037777Y040200D01*
X035563Y019065D02*
X035600Y019028D01*
X033264Y019065D02*
X035563D01*
X032236Y020093D02*
X033264Y019065D01*
X034110Y021690D02*
X034200Y021600D01*
X034110Y021690D02*
Y021890D01*
X032166Y023834D02*
Y024393D01*
Y023834D02*
X034110Y021890D01*
X030079Y025092D02*
X031467D01*
X032166Y024393D01*
X029800Y025372D02*
X030079Y025092D01*
X008230Y009874D02*
X008280Y009924D01*
X008150Y008830D02*
X008280Y008960D01*
Y019480D02*
X015800Y027000D01*
X008280Y009924D02*
Y019480D01*
X008230Y009526D02*
Y009874D01*
Y009526D02*
X008280Y009476D01*
X008150Y008700D02*
Y008830D01*
X008280Y008960D02*
Y009476D01*
X008600Y018800D02*
X016200Y026400D01*
X008600Y012133D02*
Y018800D01*
Y012133D02*
X009650Y011083D01*
X023536Y022668D02*
X023755D01*
X016004Y030200D02*
X023536Y022668D01*
X023527Y023400D02*
X024032D01*
X026090Y022310D02*
Y022341D01*
X021050Y012100D02*
X021750Y011400D01*
X025350D02*
X026050Y012100D01*
X021750Y011400D02*
X025350D01*
X036800Y023772D02*
X038000D01*
X034327Y023600D02*
X034499Y023772D01*
X034200Y023600D02*
X034327D01*
X034499Y023772D02*
X036600D01*
X034214Y022586D02*
X035386D01*
X035586D02*
X035600Y022572D01*
X034200Y022600D02*
X034214Y022586D01*
X030079Y020200D02*
X030186Y020093D01*
X030000Y020200D02*
X030079D01*
X030186Y020093D02*
X032236D01*
X015800Y013501D02*
Y016745D01*
Y013501D02*
X016050Y013251D01*
X015600Y016945D02*
X015800Y016745D01*
X029800Y028428D02*
X029879Y028507D01*
X030107D02*
X031200Y029600D01*
X029879Y028507D02*
X030107D01*
X022707Y022725D02*
X023000Y022432D01*
Y022400D02*
Y022432D01*
X022675Y022725D02*
X022707D01*
X024000Y022400D02*
Y022423D01*
X023755Y022668D02*
X024000Y022423D01*
X023000Y018400D02*
X023025Y018375D01*
X021000Y022400D02*
Y022600D01*
X024032Y023400D02*
X025000Y022432D01*
X023631Y023800D02*
X024632D01*
X026090Y022341D01*
X023800Y024200D02*
X025400D01*
X024000Y024600D02*
X025800D01*
X025000Y022400D02*
Y022432D01*
X025400Y024200D02*
X027200Y022400D01*
X025800Y024600D02*
X028000Y022400D01*
X003800Y038350D02*
X004700Y039250D01*
X003800Y032600D02*
Y038350D01*
X010700Y033250D02*
X010750D01*
X042592Y040200D02*
X042752Y040360D01*
X009650Y009700D02*
Y011083D01*
X026050Y012100D02*
X027050D01*
X023025Y013125D02*
X023050Y013100D01*
G54D62*
X028800Y040116D02*
X029748Y039168D01*
X030175D01*
X031200Y038143D01*
X028800Y040116D02*
Y041958D01*
X007800Y011641D02*
Y026000D01*
X007000Y010841D02*
X007800Y011641D01*
X019073Y015431D02*
X020550Y013954D01*
X028800Y041958D02*
X029787Y042945D01*
X030787Y040807D02*
Y042945D01*
X016050Y013100D02*
Y013251D01*
X015600Y016945D02*
Y017028D01*
X020000Y022225D02*
Y022400D01*
X019073Y021298D02*
X020000Y022225D01*
X019073Y020600D02*
Y021298D01*
Y015431D02*
Y020600D01*
X018000D02*
X019073D01*
X007000Y008982D02*
X007782Y008200D01*
X008650D02*
X009150Y008700D01*
X007782Y008200D02*
X008650D01*
X007000Y008982D02*
Y010841D01*
X025700Y028400D02*
Y033250D01*
X022837Y028400D02*
X025700D01*
X021900Y027463D02*
X022837Y028400D01*
X026276Y027463D02*
X026510Y027228D01*
X026600D01*
X024900Y027463D02*
X026276D01*
X027700Y039250D02*
X027744Y039294D01*
Y042901D02*
X027787Y042945D01*
X029414Y040186D02*
X030986D01*
G54D63*
X015050Y013100D02*
D03*
X016050D02*
D03*
X018050D02*
D03*
X019050D02*
D03*
X020050D02*
D03*
X021050D02*
D03*
X022050D02*
D03*
X023050D02*
D03*
X024050D02*
D03*
X025050D02*
D03*
X026050D02*
D03*
X027050D02*
D03*
X015050Y012100D02*
D03*
X016050D02*
D03*
X017050D02*
D03*
X018050D02*
D03*
X019050D02*
D03*
X020050D02*
D03*
X021050D02*
D03*
X022050D02*
D03*
X023050D02*
D03*
X024050D02*
D03*
X025050D02*
D03*
X026050D02*
D03*
X027050D02*
D03*
X017050Y013100D02*
D03*
G54D64*
X013050D02*
D03*
X029050D02*
D03*
G54D65*
X010787Y042945D02*
D03*
G54D66*
X005329Y026600D02*
D03*
X013400D02*
D03*
G54D67*
X008150Y042700D02*
D03*
X009150Y041700D02*
D03*
X008150Y040700D02*
D03*
G54D68*
X044040Y041150D02*
D03*
X043650Y040360D02*
D03*
X043250Y041150D02*
D03*
X042860Y040360D02*
D03*
G54D69*
X037200Y005000D02*
D03*
G54D70*
X038200D02*
D03*
X039200D02*
D03*
G54D71*
X031200Y032600D02*
D03*
Y031600D02*
D03*
Y030600D02*
D03*
Y029600D02*
D03*
Y028600D02*
D03*
Y027600D02*
D03*
Y026600D02*
D03*
Y025600D02*
D03*
Y024600D02*
D03*
Y023600D02*
D03*
Y022600D02*
D03*
Y021600D02*
D03*
Y020600D02*
D03*
Y019600D02*
D03*
X034200Y032600D02*
D03*
Y031600D02*
D03*
Y030600D02*
D03*
Y029600D02*
D03*
Y028600D02*
D03*
Y027600D02*
D03*
Y026600D02*
D03*
Y025600D02*
D03*
Y024600D02*
D03*
Y023600D02*
D03*
Y022600D02*
D03*
Y021600D02*
D03*
Y020600D02*
D03*
G54D72*
Y019600D02*
D03*
G54D73*
X006900Y006200D02*
D03*
X010900D02*
D03*
G54D74*
X007650Y009700D02*
D03*
X036372Y014400D02*
D03*
G54D75*
X028000Y022400D02*
D03*
X027000D02*
D03*
X026000D02*
D03*
X025000D02*
D03*
X024000D02*
D03*
X023000D02*
D03*
X022000D02*
D03*
X021000D02*
D03*
X020000D02*
D03*
X028000Y018400D02*
D03*
X027000D02*
D03*
X026000D02*
D03*
X025000D02*
D03*
X024000D02*
D03*
X023000D02*
D03*
X022000D02*
D03*
X021000D02*
D03*
G54D76*
X020000D02*
D03*
G54D77*
X009600Y013000D02*
D03*
Y014000D02*
D03*
Y015000D02*
D03*
Y016000D02*
D03*
X006600Y013000D02*
D03*
Y014000D02*
D03*
Y015000D02*
D03*
G54D78*
Y016000D02*
D03*
G54D79*
X032200Y011909D02*
D03*
G54D80*
Y004491D02*
D03*
G54D81*
X016787Y041400D02*
D03*
X035200Y016594D02*
D03*
G54D82*
X016000Y041400D02*
D03*
G54D83*
X029800Y019700D02*
D03*
X037200Y028500D02*
D03*
G54D84*
X029800Y020200D02*
D03*
Y020700D02*
D03*
X037200Y027500D02*
D03*
Y028000D02*
D03*
G54D85*
X040000Y015000D02*
D03*
Y016000D02*
D03*
Y017000D02*
D03*
Y018000D02*
D03*
Y038000D02*
D03*
Y037000D02*
D03*
Y036000D02*
D03*
Y035000D02*
D03*
Y034000D02*
D03*
Y029000D02*
D03*
Y030000D02*
D03*
Y031000D02*
D03*
Y032000D02*
D03*
Y033000D02*
D03*
Y023000D02*
D03*
Y022000D02*
D03*
Y021000D02*
D03*
Y020000D02*
D03*
Y019000D02*
D03*
Y024000D02*
D03*
Y025000D02*
D03*
Y026000D02*
D03*
Y027000D02*
D03*
Y028000D02*
D03*
X053000Y014000D02*
D03*
X054000D02*
D03*
X055000D02*
D03*
X056000D02*
D03*
X057000D02*
D03*
Y013000D02*
D03*
X056000D02*
D03*
X055000D02*
D03*
X054000D02*
D03*
X053000D02*
D03*
X057000Y012000D02*
D03*
X056000D02*
D03*
X055000D02*
D03*
X054000D02*
D03*
X053000D02*
D03*
X057000Y011000D02*
D03*
X056000D02*
D03*
X055000D02*
D03*
X054000D02*
D03*
X053000D02*
D03*
X057000Y010000D02*
D03*
X056000D02*
D03*
X055000D02*
D03*
X054000D02*
D03*
X053000D02*
D03*
X048000Y014000D02*
D03*
X049000D02*
D03*
X050000D02*
D03*
X051000D02*
D03*
X052000D02*
D03*
Y013000D02*
D03*
X051000D02*
D03*
X050000D02*
D03*
X049000D02*
D03*
X048000D02*
D03*
X052000Y012000D02*
D03*
X051000D02*
D03*
X050000D02*
D03*
X049000D02*
D03*
X048000D02*
D03*
X052000Y011000D02*
D03*
X051000D02*
D03*
X050000D02*
D03*
X049000D02*
D03*
X048000D02*
D03*
X052000Y010000D02*
D03*
X051000D02*
D03*
X050000D02*
D03*
X049000D02*
D03*
X048000D02*
D03*
X043000Y014000D02*
D03*
X044000D02*
D03*
X045000D02*
D03*
X046000D02*
D03*
X047000D02*
D03*
Y013000D02*
D03*
X046000D02*
D03*
X045000D02*
D03*
X044000D02*
D03*
X043000D02*
D03*
X047000Y012000D02*
D03*
X046000D02*
D03*
X045000D02*
D03*
X044000D02*
D03*
X043000D02*
D03*
X047000Y011000D02*
D03*
X046000D02*
D03*
X045000D02*
D03*
X044000D02*
D03*
X043000D02*
D03*
X047000Y010000D02*
D03*
X046000D02*
D03*
X045000D02*
D03*
X044000D02*
D03*
X043000D02*
D03*
X042000D02*
D03*
Y011000D02*
D03*
Y012000D02*
D03*
Y013000D02*
D03*
Y014000D02*
D03*
Y009000D02*
D03*
Y008000D02*
D03*
Y007000D02*
D03*
X043000D02*
D03*
X044000D02*
D03*
X045000D02*
D03*
X046000D02*
D03*
X047000D02*
D03*
X043000Y008000D02*
D03*
X044000D02*
D03*
X045000D02*
D03*
X046000D02*
D03*
X047000D02*
D03*
X043000Y009000D02*
D03*
X044000D02*
D03*
X045000D02*
D03*
X046000D02*
D03*
X047000D02*
D03*
X048000Y007000D02*
D03*
X049000D02*
D03*
X050000D02*
D03*
X051000D02*
D03*
X052000D02*
D03*
X048000Y008000D02*
D03*
X049000D02*
D03*
X050000D02*
D03*
X051000D02*
D03*
X052000D02*
D03*
X048000Y009000D02*
D03*
X049000D02*
D03*
X050000D02*
D03*
X051000D02*
D03*
X052000D02*
D03*
X053000Y007000D02*
D03*
X054000D02*
D03*
X055000D02*
D03*
X056000D02*
D03*
X057000D02*
D03*
X053000Y008000D02*
D03*
X054000D02*
D03*
X055000D02*
D03*
X056000D02*
D03*
X057000D02*
D03*
X053000Y009000D02*
D03*
X054000D02*
D03*
X055000D02*
D03*
X056000D02*
D03*
X057000D02*
D03*
X058000Y007000D02*
D03*
Y008000D02*
D03*
Y009000D02*
D03*
Y014000D02*
D03*
Y013000D02*
D03*
Y012000D02*
D03*
Y011000D02*
D03*
Y010000D02*
D03*
Y028000D02*
D03*
Y027000D02*
D03*
Y026000D02*
D03*
Y025000D02*
D03*
Y024000D02*
D03*
Y019000D02*
D03*
Y020000D02*
D03*
Y021000D02*
D03*
Y022000D02*
D03*
Y023000D02*
D03*
Y033000D02*
D03*
Y032000D02*
D03*
Y031000D02*
D03*
Y030000D02*
D03*
Y029000D02*
D03*
Y034000D02*
D03*
Y035000D02*
D03*
Y036000D02*
D03*
Y037000D02*
D03*
Y038000D02*
D03*
Y018000D02*
D03*
Y017000D02*
D03*
Y016000D02*
D03*
Y015000D02*
D03*
X057000Y018000D02*
D03*
X056000D02*
D03*
X055000D02*
D03*
X054000D02*
D03*
X053000D02*
D03*
X057000Y017000D02*
D03*
X056000D02*
D03*
X055000D02*
D03*
X054000D02*
D03*
X053000D02*
D03*
X057000Y016000D02*
D03*
X056000D02*
D03*
X055000D02*
D03*
X054000D02*
D03*
X053000D02*
D03*
X057000Y015000D02*
D03*
X056000D02*
D03*
X055000D02*
D03*
X054000D02*
D03*
X053000D02*
D03*
X052000Y018000D02*
D03*
X051000D02*
D03*
X050000D02*
D03*
X049000D02*
D03*
X048000D02*
D03*
X052000Y017000D02*
D03*
X051000D02*
D03*
X050000D02*
D03*
X049000D02*
D03*
X048000D02*
D03*
X052000Y016000D02*
D03*
X051000D02*
D03*
X050000D02*
D03*
X049000D02*
D03*
X048000D02*
D03*
X052000Y015000D02*
D03*
X051000D02*
D03*
X050000D02*
D03*
X049000D02*
D03*
X048000D02*
D03*
X047000Y018000D02*
D03*
X046000D02*
D03*
X045000D02*
D03*
X044000D02*
D03*
X043000D02*
D03*
X047000Y017000D02*
D03*
X046000D02*
D03*
X045000D02*
D03*
X044000D02*
D03*
X043000D02*
D03*
X047000Y016000D02*
D03*
X046000D02*
D03*
X045000D02*
D03*
X044000D02*
D03*
X043000D02*
D03*
X047000Y015000D02*
D03*
X046000D02*
D03*
X045000D02*
D03*
X044000D02*
D03*
X043000D02*
D03*
X041000D02*
D03*
X042000D02*
D03*
X041000Y016000D02*
D03*
X042000D02*
D03*
X041000Y017000D02*
D03*
X042000D02*
D03*
X041000Y018000D02*
D03*
X042000D02*
D03*
X041000Y038000D02*
D03*
X042000D02*
D03*
Y037000D02*
D03*
X041000D02*
D03*
X042000Y036000D02*
D03*
X041000D02*
D03*
X042000Y035000D02*
D03*
X041000D02*
D03*
X042000Y034000D02*
D03*
X041000D02*
D03*
Y029000D02*
D03*
X042000D02*
D03*
X041000Y030000D02*
D03*
X042000D02*
D03*
X041000Y031000D02*
D03*
X042000D02*
D03*
X041000Y032000D02*
D03*
X042000D02*
D03*
Y033000D02*
D03*
X041000D02*
D03*
Y023000D02*
D03*
X042000D02*
D03*
Y022000D02*
D03*
X041000D02*
D03*
X042000Y021000D02*
D03*
X041000D02*
D03*
X042000Y020000D02*
D03*
X041000D02*
D03*
X042000Y019000D02*
D03*
X041000D02*
D03*
Y024000D02*
D03*
X042000D02*
D03*
X041000Y025000D02*
D03*
X042000D02*
D03*
X041000Y026000D02*
D03*
X042000D02*
D03*
X041000Y027000D02*
D03*
X042000D02*
D03*
Y028000D02*
D03*
X041000D02*
D03*
X057000Y027000D02*
D03*
X043000Y028000D02*
D03*
X044000D02*
D03*
X045000D02*
D03*
X046000D02*
D03*
X047000D02*
D03*
Y027000D02*
D03*
X046000D02*
D03*
X045000D02*
D03*
X044000D02*
D03*
X043000D02*
D03*
X047000Y026000D02*
D03*
X046000D02*
D03*
X045000D02*
D03*
X044000D02*
D03*
X043000D02*
D03*
X047000Y025000D02*
D03*
X046000D02*
D03*
X045000D02*
D03*
X044000D02*
D03*
X043000D02*
D03*
X047000Y024000D02*
D03*
X046000D02*
D03*
X045000D02*
D03*
X044000D02*
D03*
X043000D02*
D03*
X048000D02*
D03*
X049000D02*
D03*
X050000D02*
D03*
X051000D02*
D03*
X052000D02*
D03*
X048000Y025000D02*
D03*
X049000D02*
D03*
X050000D02*
D03*
X051000D02*
D03*
X052000D02*
D03*
X048000Y026000D02*
D03*
X049000D02*
D03*
X050000D02*
D03*
X051000D02*
D03*
X052000D02*
D03*
X048000Y027000D02*
D03*
X049000D02*
D03*
X050000D02*
D03*
X051000D02*
D03*
X052000D02*
D03*
Y028000D02*
D03*
X051000D02*
D03*
X050000D02*
D03*
X049000D02*
D03*
X048000D02*
D03*
X043000Y019000D02*
D03*
X044000D02*
D03*
X045000D02*
D03*
X046000D02*
D03*
X047000D02*
D03*
X043000Y020000D02*
D03*
X044000D02*
D03*
X045000D02*
D03*
X046000D02*
D03*
X047000D02*
D03*
X043000Y021000D02*
D03*
X044000D02*
D03*
X045000D02*
D03*
X046000D02*
D03*
X047000D02*
D03*
X043000Y022000D02*
D03*
X044000D02*
D03*
X045000D02*
D03*
X046000D02*
D03*
X047000D02*
D03*
Y023000D02*
D03*
X046000D02*
D03*
X045000D02*
D03*
X044000D02*
D03*
X043000D02*
D03*
X048000Y019000D02*
D03*
X049000D02*
D03*
X050000D02*
D03*
X051000D02*
D03*
X052000D02*
D03*
X048000Y020000D02*
D03*
X049000D02*
D03*
X050000D02*
D03*
X051000D02*
D03*
X052000D02*
D03*
X048000Y021000D02*
D03*
X049000D02*
D03*
X050000D02*
D03*
X051000D02*
D03*
X052000D02*
D03*
X048000Y022000D02*
D03*
X049000D02*
D03*
X050000D02*
D03*
X051000D02*
D03*
X052000D02*
D03*
Y023000D02*
D03*
X051000D02*
D03*
X050000D02*
D03*
X049000D02*
D03*
X048000D02*
D03*
X053000Y024000D02*
D03*
X054000D02*
D03*
X055000D02*
D03*
X056000D02*
D03*
X057000D02*
D03*
X053000Y025000D02*
D03*
X054000D02*
D03*
X055000D02*
D03*
X056000D02*
D03*
X057000D02*
D03*
X053000Y026000D02*
D03*
X054000D02*
D03*
X055000D02*
D03*
X056000D02*
D03*
X057000D02*
D03*
X053000Y027000D02*
D03*
X054000D02*
D03*
X055000D02*
D03*
X056000D02*
D03*
X057000Y028000D02*
D03*
X056000D02*
D03*
X055000D02*
D03*
X054000D02*
D03*
X053000D02*
D03*
Y019000D02*
D03*
X054000D02*
D03*
X055000D02*
D03*
X056000D02*
D03*
X057000D02*
D03*
X053000Y020000D02*
D03*
X054000D02*
D03*
X055000D02*
D03*
X056000D02*
D03*
X057000D02*
D03*
X053000Y021000D02*
D03*
X054000D02*
D03*
X055000D02*
D03*
X056000D02*
D03*
X057000D02*
D03*
X053000Y022000D02*
D03*
X054000D02*
D03*
X055000D02*
D03*
X056000D02*
D03*
X057000D02*
D03*
Y023000D02*
D03*
X056000D02*
D03*
X055000D02*
D03*
X054000D02*
D03*
X053000D02*
D03*
Y033000D02*
D03*
X054000D02*
D03*
X055000D02*
D03*
X056000D02*
D03*
X057000D02*
D03*
Y032000D02*
D03*
X056000D02*
D03*
X055000D02*
D03*
X054000D02*
D03*
X053000D02*
D03*
X057000Y031000D02*
D03*
X056000D02*
D03*
X055000D02*
D03*
X054000D02*
D03*
X053000D02*
D03*
X057000Y030000D02*
D03*
X056000D02*
D03*
X055000D02*
D03*
X054000D02*
D03*
X053000D02*
D03*
X057000Y029000D02*
D03*
X056000D02*
D03*
X055000D02*
D03*
X054000D02*
D03*
X053000D02*
D03*
Y038000D02*
D03*
X054000D02*
D03*
X055000D02*
D03*
X056000D02*
D03*
X057000D02*
D03*
Y037000D02*
D03*
X056000D02*
D03*
X055000D02*
D03*
X054000D02*
D03*
X053000D02*
D03*
X057000Y036000D02*
D03*
X056000D02*
D03*
X055000D02*
D03*
X054000D02*
D03*
X053000D02*
D03*
X057000Y035000D02*
D03*
X056000D02*
D03*
X055000D02*
D03*
X054000D02*
D03*
X053000D02*
D03*
X057000Y034000D02*
D03*
X056000D02*
D03*
X055000D02*
D03*
X054000D02*
D03*
X053000D02*
D03*
X048000Y033000D02*
D03*
X049000D02*
D03*
X050000D02*
D03*
X051000D02*
D03*
X052000D02*
D03*
Y032000D02*
D03*
X051000D02*
D03*
X050000D02*
D03*
X049000D02*
D03*
X048000D02*
D03*
X052000Y031000D02*
D03*
X051000D02*
D03*
X050000D02*
D03*
X049000D02*
D03*
X048000D02*
D03*
X052000Y030000D02*
D03*
X051000D02*
D03*
X050000D02*
D03*
X049000D02*
D03*
X048000D02*
D03*
X052000Y029000D02*
D03*
X051000D02*
D03*
X050000D02*
D03*
X049000D02*
D03*
X048000D02*
D03*
X043000Y033000D02*
D03*
X044000D02*
D03*
X045000D02*
D03*
X046000D02*
D03*
X047000D02*
D03*
Y032000D02*
D03*
X046000D02*
D03*
X045000D02*
D03*
X044000D02*
D03*
X043000D02*
D03*
X047000Y031000D02*
D03*
X046000D02*
D03*
X045000D02*
D03*
X044000D02*
D03*
X043000D02*
D03*
X047000Y030000D02*
D03*
X046000D02*
D03*
X045000D02*
D03*
X044000D02*
D03*
X043000D02*
D03*
X047000Y029000D02*
D03*
X046000D02*
D03*
X045000D02*
D03*
X044000D02*
D03*
X043000D02*
D03*
X048000Y038000D02*
D03*
X049000D02*
D03*
X050000D02*
D03*
X051000D02*
D03*
X052000D02*
D03*
Y037000D02*
D03*
X051000D02*
D03*
X050000D02*
D03*
X049000D02*
D03*
X048000D02*
D03*
X052000Y036000D02*
D03*
X051000D02*
D03*
X050000D02*
D03*
X049000D02*
D03*
X048000D02*
D03*
X052000Y035000D02*
D03*
X051000D02*
D03*
X050000D02*
D03*
X049000D02*
D03*
X048000D02*
D03*
X052000Y034000D02*
D03*
X051000D02*
D03*
X050000D02*
D03*
X049000D02*
D03*
X048000D02*
D03*
X043000D02*
D03*
X044000D02*
D03*
X045000D02*
D03*
X046000D02*
D03*
X047000D02*
D03*
X043000Y035000D02*
D03*
X044000D02*
D03*
X045000D02*
D03*
X046000D02*
D03*
X047000D02*
D03*
X043000Y036000D02*
D03*
X044000D02*
D03*
X045000D02*
D03*
X046000D02*
D03*
X047000D02*
D03*
X043000Y037000D02*
D03*
X044000D02*
D03*
X045000D02*
D03*
X046000D02*
D03*
X047000D02*
D03*
Y038000D02*
D03*
X046000D02*
D03*
X045000D02*
D03*
X044000D02*
D03*
X043000D02*
D03*
G54D86*
X031000Y039700D02*
D03*
Y040200D02*
D03*
G54D87*
Y040700D02*
D03*
G54D88*
X035600Y028172D02*
D03*
G54D89*
Y024628D02*
D03*
G54D90*
X035200Y015806D02*
D03*
G54D91*
X038200Y011600D02*
D03*
G54D92*
X058622Y042567D02*
D03*
X004700Y042550D02*
D03*
X004685Y004378D02*
D03*
X058622D02*
D03*
G54D93*
X013400Y009800D02*
D03*
X007800Y026000D02*
D03*
G54D94*
X034015Y036438D02*
D03*
X009000Y027600D02*
D03*
X008000Y036200D02*
D03*
X016200Y026400D02*
D03*
X019400Y023200D02*
D03*
X018600Y024000D02*
D03*
X017800Y024800D02*
D03*
X015800Y027000D02*
D03*
M02*
