G04*
G04 #@! TF.GenerationSoftware,Altium Limited,Altium Designer,21.6.1 (37)*
G04*
G04 Layer_Color=65535*
%FSAX24Y24*%
%MOIN*%
G70*
G04*
G04 #@! TF.SameCoordinates,F5C88182-2F8C-44A9-A90F-F64FCCDA4292*
G04*
G04*
G04 #@! TF.FilePolarity,Positive*
G04*
G01*
G75*
%ADD10C,0.0079*%
%ADD11C,0.0000*%
%ADD12C,0.0098*%
%ADD13C,0.0236*%
%ADD14C,0.0100*%
%ADD15C,0.0039*%
%ADD16C,0.0060*%
%ADD17C,0.0070*%
%ADD18C,0.0150*%
%ADD19C,0.0300*%
%ADD20C,0.0059*%
%ADD21R,0.2205X0.0315*%
G54D10*
X015105Y014872D02*
X015026D01*
X015105D01*
X016785Y026600D02*
X016784Y026700D01*
X016781Y026800D01*
X016777Y026900D01*
X016770Y027000D01*
X016762Y027100D01*
X016752Y027199D01*
X016740Y027299D01*
X016726Y027398D01*
X016711Y027497D01*
X016694Y027596D01*
X016674Y027694D01*
X016653Y027792D01*
X016631Y027889D01*
X016606Y027986D01*
X016580Y028083D01*
X016552Y028179D01*
X016522Y028274D01*
X016491Y028370D01*
X016457Y028464D01*
X016422Y028558D01*
X016386Y028651D01*
X016347Y028743D01*
X016307Y028835D01*
X016265Y028926D01*
X016222Y029016D01*
X016177Y029106D01*
X016130Y029194D01*
X016082Y029282D01*
X016032Y029369D01*
X015980Y029454D01*
X015927Y029539D01*
X015873Y029623D01*
X015817Y029706D01*
X015759Y029788D01*
X015700Y029869D01*
X015639Y029948D01*
X015577Y030027D01*
X015514Y030104D01*
X015449Y030181D01*
X015382Y030256D01*
X015315Y030329D01*
X015246Y030402D01*
X015175Y030473D01*
X015104Y030543D01*
X015031Y030612D01*
X014957Y030679D01*
X014882Y030745D01*
X014805Y030810D01*
X014727Y030873D01*
X014649Y030934D01*
X014569Y030995D01*
X014488Y031053D01*
X014405Y031111D01*
X014322Y031166D01*
X014238Y031221D01*
X014153Y031273D01*
X014067Y031324D01*
X013980Y031374D01*
X013892Y031422D01*
X013803Y031468D01*
X013714Y031513D01*
X013623Y031556D01*
X013532Y031597D01*
X013440Y031637D01*
X013348Y031675D01*
X013254Y031711D01*
X013160Y031746D01*
X013066Y031779D01*
X012971Y031810D01*
X012875Y031839D01*
X012779Y031867D01*
X012682Y031893D01*
X012585Y031917D01*
X012487Y031939D01*
X012389Y031959D01*
X012291Y031978D01*
X012192Y031995D01*
X012093Y032010D01*
X011994Y032023D01*
X011895Y032035D01*
X011795Y032044D01*
X011695Y032052D01*
X011595Y032058D01*
X011495Y032062D01*
X011395Y032064D01*
X011295Y032065D01*
X011195Y032064D01*
X011095Y032060D01*
X010995Y032055D01*
X010895Y032048D01*
X010795Y032040D01*
X010696Y032029D01*
X010596Y032017D01*
X010497Y032003D01*
X010398Y031987D01*
X010300Y031969D01*
X010202Y031949D01*
X010104Y031928D01*
X010007Y031905D01*
X009910Y031880D01*
X009813Y031853D01*
X009717Y031825D01*
X009622Y031794D01*
X009527Y031762D01*
X009433Y031729D01*
X009339Y031693D01*
X009246Y031656D01*
X009154Y031617D01*
X009062Y031577D01*
X008971Y031535D01*
X008881Y031491D01*
X008792Y031445D01*
X008704Y031398D01*
X008616Y031349D01*
X008530Y031299D01*
X008444Y031247D01*
X008360Y031194D01*
X008276Y031139D01*
X008193Y031082D01*
X008112Y031024D01*
X008031Y030965D01*
X007952Y030904D01*
X007874Y030841D01*
X007797Y030777D01*
X007721Y030712D01*
X007646Y030646D01*
X007572Y030578D01*
X007500Y030508D01*
X007429Y030438D01*
X007360Y030366D01*
X007291Y030293D01*
X007224Y030218D01*
X007159Y030143D01*
X007095Y030066D01*
X007032Y029988D01*
X006970Y029909D01*
X006911Y029828D01*
X006852Y029747D01*
X006795Y029665D01*
X006740Y029581D01*
X006686Y029497D01*
X006634Y029412D01*
X006583Y029325D01*
X006534Y029238D01*
X006486Y029150D01*
X006440Y029061D01*
X006396Y028971D01*
X006354Y028881D01*
X006313Y028789D01*
X006273Y028697D01*
X006236Y028604D01*
X006200Y028511D01*
X006166Y028417D01*
X006133Y028322D01*
X006103Y028227D01*
X006074Y028131D01*
X006047Y028035D01*
X006021Y027938D01*
X005998Y027840D01*
X005976Y027743D01*
X005956Y027645D01*
X005938Y027546D01*
X005921Y027448D01*
X005907Y027348D01*
X005894Y027249D01*
X005883Y027150D01*
X005874Y027050D01*
X005866Y026950D01*
X005861Y026850D01*
X005857Y026750D01*
X005855Y026650D01*
Y026550D01*
X005857Y026450D01*
X005861Y026350D01*
X005866Y026250D01*
X005874Y026150D01*
X005883Y026050D01*
X005894Y025951D01*
X005906Y025852D01*
X005921Y025753D01*
X005938Y025654D01*
X005956Y025555D01*
X005976Y025457D01*
X005998Y025360D01*
X006021Y025262D01*
X006047Y025165D01*
X006074Y025069D01*
X006103Y024973D01*
X006133Y024878D01*
X006166Y024783D01*
X006200Y024689D01*
X006236Y024596D01*
X006273Y024503D01*
X006313Y024411D01*
X006354Y024319D01*
X006396Y024229D01*
X006440Y024139D01*
X006486Y024050D01*
X006534Y023962D01*
X006583Y023875D01*
X006634Y023788D01*
X006686Y023703D01*
X006740Y023619D01*
X006795Y023535D01*
X006852Y023453D01*
X006911Y023372D01*
X006970Y023291D01*
X007032Y023212D01*
X007094Y023134D01*
X007159Y023057D01*
X007224Y022982D01*
X007291Y022907D01*
X007360Y022834D01*
X007429Y022762D01*
X007500Y022692D01*
X007572Y022622D01*
X007646Y022554D01*
X007721Y022488D01*
X007796Y022423D01*
X007874Y022359D01*
X007952Y022296D01*
X008031Y022235D01*
X008112Y022176D01*
X008193Y022118D01*
X008276Y022061D01*
X008360Y022006D01*
X008444Y021953D01*
X008530Y021901D01*
X008616Y021851D01*
X008704Y021802D01*
X008792Y021755D01*
X008881Y021709D01*
X008971Y021665D01*
X009062Y021623D01*
X009154Y021583D01*
X009246Y021544D01*
X009339Y021507D01*
X009433Y021471D01*
X009527Y021438D01*
X009622Y021406D01*
X009717Y021375D01*
X009813Y021347D01*
X009910Y021320D01*
X010007Y021295D01*
X010104Y021272D01*
X010202Y021251D01*
X010300Y021231D01*
X010398Y021213D01*
X010497Y021197D01*
X010596Y021183D01*
X010696Y021171D01*
X010795Y021160D01*
X010895Y021152D01*
X010995Y021145D01*
X011095Y021140D01*
X011195Y021136D01*
X011295Y021135D01*
X011395Y021136D01*
X011495Y021138D01*
X011595Y021142D01*
X011695Y021148D01*
X011795Y021156D01*
X011895Y021165D01*
X011994Y021177D01*
X012093Y021190D01*
X012192Y021205D01*
X012291Y021222D01*
X012389Y021241D01*
X012487Y021261D01*
X012585Y021283D01*
X012682Y021307D01*
X012779Y021333D01*
X012875Y021361D01*
X012971Y021390D01*
X013066Y021421D01*
X013160Y021454D01*
X013254Y021489D01*
X013348Y021525D01*
X013440Y021563D01*
X013532Y021603D01*
X013623Y021644D01*
X013714Y021687D01*
X013803Y021732D01*
X013892Y021778D01*
X013980Y021826D01*
X014067Y021876D01*
X014153Y021927D01*
X014238Y021979D01*
X014322Y022034D01*
X014405Y022089D01*
X014488Y022147D01*
X014569Y022205D01*
X014648Y022266D01*
X014727Y022327D01*
X014805Y022390D01*
X014882Y022455D01*
X014957Y022521D01*
X015031Y022588D01*
X015104Y022657D01*
X015175Y022727D01*
X015246Y022798D01*
X015315Y022871D01*
X015382Y022944D01*
X015449Y023019D01*
X015514Y023096D01*
X015577Y023173D01*
X015639Y023252D01*
X015700Y023331D01*
X015759Y023412D01*
X015816Y023494D01*
X015873Y023577D01*
X015927Y023661D01*
X015980Y023746D01*
X016032Y023831D01*
X016082Y023918D01*
X016130Y024006D01*
X016177Y024094D01*
X016222Y024184D01*
X016265Y024274D01*
X016307Y024365D01*
X016347Y024457D01*
X016386Y024549D01*
X016422Y024642D01*
X016457Y024736D01*
X016491Y024830D01*
X016522Y024925D01*
X016552Y025021D01*
X016580Y025117D01*
X016606Y025214D01*
X016631Y025311D01*
X016653Y025408D01*
X016674Y025506D01*
X016694Y025604D01*
X016711Y025703D01*
X016726Y025802D01*
X016740Y025901D01*
X016752Y026000D01*
X016762Y026100D01*
X016770Y026200D01*
X016777Y026300D01*
X016781Y026400D01*
X016784Y026500D01*
X016785Y026600D01*
X008111Y043291D02*
X008189D01*
X008111D01*
X032950Y018974D02*
X032931Y019070D01*
X032877Y019151D01*
X032796Y019205D01*
X032700Y019224D01*
X032604Y019205D01*
X032523Y019151D01*
X032469Y019070D01*
X032450Y018974D01*
X017378Y041400D02*
X017373Y041500D01*
X017358Y041598D01*
X017333Y041695D01*
X017298Y041788D01*
X017254Y041878D01*
X017202Y041962D01*
X017141Y042041D01*
X017072Y042113D01*
X016996Y042178D01*
X016914Y042235D01*
X016827Y042284D01*
X016736Y042323D01*
X016640Y042353D01*
X016543Y042373D01*
X016444Y042383D01*
X016344D01*
X016245Y042373D01*
X016147Y042353D01*
X016052Y042323D01*
X015960Y042284D01*
X015873Y042235D01*
X015791Y042178D01*
X015716Y042113D01*
X015647Y042041D01*
X015586Y041962D01*
X015533Y041878D01*
X015489Y041788D01*
X015455Y041695D01*
X015430Y041598D01*
X015415Y041500D01*
X015409Y041400D01*
X015415Y041300D01*
X015430Y041202D01*
X015455Y041105D01*
X015489Y041012D01*
X015533Y040922D01*
X015586Y040838D01*
X015647Y040759D01*
X015716Y040687D01*
X015791Y040622D01*
X015873Y040565D01*
X015960Y040516D01*
X016052Y040477D01*
X016147Y040447D01*
X016245Y040427D01*
X016344Y040417D01*
X016444D01*
X016543Y040427D01*
X016640Y040447D01*
X016736Y040477D01*
X016827Y040516D01*
X016914Y040565D01*
X016996Y040622D01*
X017072Y040687D01*
X017141Y040759D01*
X017202Y040838D01*
X017254Y040922D01*
X017298Y041012D01*
X017333Y041105D01*
X017358Y041202D01*
X017373Y041300D01*
X017378Y041400D01*
X030326Y020961D02*
X030240Y021014D01*
X030149Y021057D01*
X030054Y021090D01*
X029956Y021112D01*
X029856Y021124D01*
X029755Y021124D01*
X029655Y021114D01*
X029557Y021093D01*
X029462Y021061D01*
X029370Y021019D01*
X029284Y020968D01*
X029203Y020907D01*
X029130Y020838D01*
X029065Y020762D01*
X029008Y020679D01*
X028961Y020590D01*
X028924Y020496D01*
X028897Y020400D01*
X028880Y020300D01*
X028875Y020200D01*
X028880Y020099D01*
X028897Y020000D01*
X028924Y019903D01*
X028961Y019810D01*
X029008Y019721D01*
X029065Y019638D01*
X029130Y019562D01*
X029204Y019493D01*
X029284Y019432D01*
X029370Y019381D01*
X029462Y019339D01*
X029557Y019307D01*
X029655Y019286D01*
X029755Y019276D01*
X029856Y019276D01*
X029956Y019288D01*
X030054Y019310D01*
X030149Y019343D01*
X030240Y019386D01*
X030326Y019439D01*
X030474Y039439D02*
X030560Y039386D01*
X030651Y039343D01*
X030746Y039310D01*
X030844Y039288D01*
X030944Y039276D01*
X031045Y039276D01*
X031145Y039286D01*
X031243Y039307D01*
X031338Y039339D01*
X031430Y039381D01*
X031516Y039432D01*
X031597Y039493D01*
X031670Y039562D01*
X031735Y039638D01*
X031792Y039721D01*
X031839Y039810D01*
X031876Y039904D01*
X031903Y040000D01*
X031920Y040100D01*
X031925Y040200D01*
X031920Y040300D01*
X031903Y040400D01*
X031876Y040497D01*
X031839Y040590D01*
X031792Y040679D01*
X031735Y040762D01*
X031670Y040838D01*
X031597Y040907D01*
X031516Y040968D01*
X031430Y041019D01*
X031338Y041061D01*
X031243Y041093D01*
X031145Y041114D01*
X031045Y041124D01*
X030944Y041123D01*
X030844Y041112D01*
X030746Y041090D01*
X030651Y041057D01*
X030560Y041014D01*
X030474Y040961D01*
X036674Y027239D02*
X036760Y027186D01*
X036851Y027143D01*
X036946Y027110D01*
X037044Y027088D01*
X037144Y027076D01*
X037245Y027076D01*
X037345Y027086D01*
X037443Y027107D01*
X037538Y027139D01*
X037630Y027181D01*
X037716Y027232D01*
X037797Y027293D01*
X037870Y027362D01*
X037935Y027438D01*
X037992Y027521D01*
X038039Y027610D01*
X038076Y027704D01*
X038103Y027800D01*
X038120Y027900D01*
X038125Y028000D01*
X038120Y028101D01*
X038103Y028200D01*
X038076Y028297D01*
X038039Y028390D01*
X037992Y028479D01*
X037935Y028562D01*
X037870Y028638D01*
X037796Y028707D01*
X037716Y028768D01*
X037630Y028819D01*
X037538Y028861D01*
X037443Y028893D01*
X037345Y028914D01*
X037245Y028924D01*
X037144Y028923D01*
X037044Y028912D01*
X036946Y028890D01*
X036851Y028857D01*
X036760Y028814D01*
X036674Y028761D01*
X036184Y016200D02*
X036179Y016300D01*
X036164Y016398D01*
X036139Y016495D01*
X036104Y016588D01*
X036061Y016678D01*
X036008Y016762D01*
X035947Y016841D01*
X035878Y016913D01*
X035802Y016978D01*
X035721Y017035D01*
X035633Y017084D01*
X035542Y017123D01*
X035447Y017153D01*
X035349Y017173D01*
X035250Y017183D01*
X035150D01*
X035051Y017173D01*
X034953Y017153D01*
X034858Y017123D01*
X034767Y017084D01*
X034679Y017035D01*
X034598Y016978D01*
X034522Y016913D01*
X034453Y016841D01*
X034392Y016762D01*
X034339Y016678D01*
X034296Y016588D01*
X034261Y016495D01*
X034236Y016398D01*
X034221Y016300D01*
X034216Y016200D01*
X034221Y016100D01*
X034236Y016002D01*
X034261Y015905D01*
X034296Y015812D01*
X034339Y015722D01*
X034392Y015638D01*
X034453Y015559D01*
X034522Y015487D01*
X034598Y015422D01*
X034679Y015365D01*
X034767Y015316D01*
X034858Y015277D01*
X034953Y015247D01*
X035051Y015227D01*
X035150Y015217D01*
X035250D01*
X035349Y015227D01*
X035447Y015247D01*
X035542Y015277D01*
X035633Y015316D01*
X035721Y015365D01*
X035802Y015422D01*
X035878Y015487D01*
X035947Y015559D01*
X036008Y015638D01*
X036061Y015722D01*
X036104Y015812D01*
X036139Y015905D01*
X036164Y016002D01*
X036179Y016100D01*
X036184Y016200D01*
X004595Y027584D02*
X005934D01*
X004595Y025616D02*
Y027584D01*
Y025616D02*
X005934D01*
X036192Y004197D02*
Y006047D01*
X040208Y004197D02*
Y006047D01*
X036192Y004197D02*
X040208D01*
X036192Y006047D02*
X040208D01*
X036192Y005850D02*
X040208D01*
X031657Y033226D02*
X033743D01*
X031657Y018974D02*
X032450D01*
X032950D02*
X033743D01*
X031657D02*
Y033226D01*
X033743Y018974D02*
Y033226D01*
X021400Y027600D02*
Y030400D01*
X025400Y027600D02*
Y030766D01*
X011498Y006601D02*
Y010184D01*
Y003098D02*
Y005799D01*
X006302Y003098D02*
Y005799D01*
Y003098D02*
X011498D01*
X006302Y010184D02*
X011498D01*
X006302Y006601D02*
Y010184D01*
X028928Y039640D02*
X029872D01*
Y037160D02*
Y039640D01*
X028928Y037160D02*
Y039640D01*
Y037160D02*
X029872D01*
X031098Y006310D02*
X033302D01*
X031098D02*
Y010090D01*
X033302Y006310D02*
Y010090D01*
X029784Y025970D02*
Y027230D01*
X027816D02*
X029784D01*
X027816Y025970D02*
Y027230D01*
Y025970D02*
X029784D01*
X036452Y031849D02*
X037148D01*
X036800Y030293D02*
Y030502D01*
Y032298D02*
Y032507D01*
X036424Y032298D02*
X037176D01*
X036424Y030502D02*
Y032298D01*
Y030502D02*
X037176D01*
Y032298D01*
X030326Y019439D02*
Y020961D01*
X035128Y029960D02*
Y032440D01*
X036072Y029960D02*
Y032440D01*
X035865D02*
X036072D01*
X035128Y029960D02*
X035335D01*
X035128Y032440D02*
X035335D01*
X035865Y029960D02*
X036072D01*
X030272Y022360D02*
Y024840D01*
X029328Y022360D02*
Y024840D01*
Y022360D02*
X029535D01*
X030065Y024840D02*
X030272D01*
X030065Y022360D02*
X030272D01*
X029328Y024840D02*
X029535D01*
X014472Y017560D02*
Y020040D01*
X013528Y017560D02*
Y020040D01*
Y017560D02*
X013735D01*
X014265Y020040D02*
X014472D01*
X014265Y017560D02*
X014472D01*
X013528Y020040D02*
X013735D01*
X030474Y039439D02*
Y040961D01*
X036674Y027239D02*
Y028761D01*
X035128Y025160D02*
Y027640D01*
X036072Y025160D02*
Y027640D01*
X035865D02*
X036072D01*
X035128Y025160D02*
X035335D01*
X035128Y027640D02*
X035335D01*
X035865Y025160D02*
X036072D01*
X037528Y020760D02*
Y023240D01*
X038472Y020760D02*
Y023240D01*
X038265D02*
X038472D01*
X037528Y020760D02*
X037735D01*
X037528Y023240D02*
X037735D01*
X038265Y020760D02*
X038472D01*
X037272D02*
Y023240D01*
X036328Y020760D02*
Y023240D01*
Y020760D02*
X036535D01*
X037065Y023240D02*
X037272D01*
X037065Y020760D02*
X037272D01*
X036328Y023240D02*
X036535D01*
X036072Y019560D02*
Y022040D01*
X035128Y019560D02*
Y022040D01*
Y019560D02*
X035335D01*
X035865Y022040D02*
X036072D01*
X035865Y019560D02*
X036072D01*
X035128Y022040D02*
X035335D01*
X016394Y019249D02*
X017091D01*
X016743Y017693D02*
Y017902D01*
Y019698D02*
Y019907D01*
X016367Y019698D02*
X017119D01*
X016367Y017902D02*
Y019698D01*
Y017902D02*
X017119D01*
Y019698D01*
X012452Y019449D02*
X013148D01*
X012800Y017893D02*
Y018102D01*
Y019898D02*
Y020107D01*
X012424Y019898D02*
X013176D01*
X012424Y018102D02*
Y019898D01*
Y018102D02*
X013176D01*
Y019898D01*
X033360Y014872D02*
X035840D01*
X033360Y013928D02*
X035840D01*
Y014135D01*
X033360Y014665D02*
Y014872D01*
X035840Y014665D02*
Y014872D01*
X033360Y013928D02*
Y014135D01*
X028252Y030649D02*
X028948D01*
X028600Y029093D02*
Y029302D01*
Y031098D02*
Y031307D01*
X028224Y031098D02*
X028976D01*
X028224Y029302D02*
Y031098D01*
Y029302D02*
X028976D01*
Y031098D01*
X029328Y028960D02*
Y031440D01*
X030272Y028960D02*
Y031440D01*
X030065D02*
X030272D01*
X029328Y028960D02*
X029535D01*
X029328Y031440D02*
X029535D01*
X030065Y028960D02*
X030272D01*
X032370Y015216D02*
X033630D01*
Y017184D01*
X032370D02*
X033630D01*
X032370Y015216D02*
Y017184D01*
X015128Y020040D02*
X015335D01*
X015865Y017560D02*
X016072D01*
X015865Y020040D02*
X016072D01*
X015128Y017560D02*
X015335D01*
X015128D02*
Y020040D01*
X016072Y017560D02*
Y020040D01*
X018265Y017560D02*
X018472D01*
X017528Y020040D02*
X017735D01*
X017528Y017560D02*
X017735D01*
X018265Y020040D02*
X018472D01*
Y017560D02*
Y020040D01*
X017528Y017560D02*
Y020040D01*
X026865Y027760D02*
X027072D01*
X026128Y030240D02*
X026335D01*
X026128Y027760D02*
X026335D01*
X026865Y030240D02*
X027072D01*
Y027760D02*
Y030240D01*
X026128Y027760D02*
Y030240D01*
X030728Y035131D02*
Y037612D01*
X031672Y035131D02*
Y037612D01*
X031465D02*
X031672D01*
X030728Y035131D02*
X030935D01*
X030728Y037612D02*
X030935D01*
X031465Y035131D02*
X031672D01*
X010416Y040770D02*
Y042030D01*
Y040770D02*
X012384D01*
Y042030D01*
X010416D02*
X012384D01*
X026560Y014928D02*
X029040D01*
X026560Y015872D02*
X029040D01*
X026560Y015665D02*
Y015872D01*
X029040Y014928D02*
Y015135D01*
X026560Y014928D02*
Y015135D01*
X029040Y015665D02*
Y015872D01*
X028531Y016328D02*
X031012D01*
X028531Y017272D02*
X031012D01*
X028531Y017065D02*
Y017272D01*
X031012Y016328D02*
Y016535D01*
X028531Y016328D02*
Y016535D01*
X031012Y017065D02*
Y017272D01*
X034924Y017370D02*
Y018630D01*
Y017370D02*
X036892D01*
Y018630D01*
X034924D02*
X036892D01*
G54D11*
X041971Y040440D02*
X041899Y040355D01*
X041907Y040244D01*
X041989Y040170D01*
G54D12*
X035985Y005000D02*
X035912Y005043D01*
Y004957D01*
X035985Y005000D01*
X034249Y019088D02*
X034175Y019131D01*
Y019046D01*
X034249Y019088D01*
X029849Y019039D02*
X029775Y019081D01*
Y018996D01*
X029849Y019039D01*
X031049Y041361D02*
X030975Y041404D01*
Y041319D01*
X031049Y041361D01*
X037249Y029161D02*
X037175Y029204D01*
Y029119D01*
X037249Y029161D01*
G54D13*
X033468Y019368D02*
X033423Y019460D01*
X033323Y019483D01*
X033243Y019419D01*
Y019316D01*
X033323Y019253D01*
X033423Y019275D01*
X033468Y019368D01*
G54D14*
X019500Y020150D02*
X019596Y020169D01*
X019677Y020223D01*
X019731Y020304D01*
X019750Y020400D01*
X019731Y020496D01*
X019677Y020577D01*
X019596Y020631D01*
X019500Y020650D01*
X007850Y016500D02*
X007869Y016404D01*
X007923Y016323D01*
X008004Y016269D01*
X008100Y016250D01*
X008196Y016269D01*
X008277Y016323D01*
X008331Y016404D01*
X008350Y016500D01*
X019500Y019250D02*
X028500D01*
Y021550D01*
X019500D02*
X028500D01*
X019500Y020650D02*
Y021550D01*
Y019250D02*
Y020150D01*
X007450Y012500D02*
Y016500D01*
Y012500D02*
X008750D01*
Y016500D01*
X008350D02*
X008750D01*
X007450D02*
X007850D01*
X053100Y039300D02*
X053300Y038900D01*
X053500Y039300D01*
X053700Y038900D02*
X053900D01*
X053800D01*
Y039500D01*
X053700Y039400D01*
X054200Y038900D02*
Y039000D01*
X054300D01*
Y038900D01*
X054200D01*
X054699Y039400D02*
X054799Y039500D01*
X054999D01*
X055099Y039400D01*
Y039000D01*
X054999Y038900D01*
X054799D01*
X054699Y039000D01*
Y039400D01*
X018900Y009300D02*
X018700D01*
X018800D01*
Y008800D01*
X018700Y008700D01*
X018600D01*
X018500Y008800D01*
X019100Y009200D02*
X019200Y009300D01*
X019400D01*
X019500Y009200D01*
Y009100D01*
X019400Y009000D01*
X019300D01*
X019400D01*
X019500Y008900D01*
Y008800D01*
X019400Y008700D01*
X019200D01*
X019100Y008800D01*
X035940Y007060D02*
Y006560D01*
X036040Y006460D01*
X036240D01*
X036340Y006560D01*
Y007060D01*
X036540Y006460D02*
X036740D01*
X036640D01*
Y007060D01*
X036540Y006960D01*
X032100Y026900D02*
Y026400D01*
X032200Y026300D01*
X032400D01*
X032500Y026400D01*
Y026900D01*
X033100Y026300D02*
X032700D01*
X033100Y026700D01*
Y026800D01*
X033000Y026900D01*
X032800D01*
X032700Y026800D01*
X023050Y029500D02*
X023250D01*
X023150D01*
Y028900D01*
X023050D01*
X023250D01*
X023950Y029400D02*
X023850Y029500D01*
X023650D01*
X023550Y029400D01*
Y029000D01*
X023650Y028900D01*
X023850D01*
X023950Y029000D01*
X024550Y028900D02*
X024150D01*
X024550Y029300D01*
Y029400D01*
X024450Y029500D01*
X024250D01*
X024150Y029400D01*
X008800Y007300D02*
X008600D01*
X008700D01*
Y006800D01*
X008600Y006700D01*
X008500D01*
X008400Y006800D01*
X009000Y006700D02*
X009200D01*
X009100D01*
Y007300D01*
X009000Y007200D01*
X029100Y038900D02*
X029700D01*
Y038600D01*
X029600Y038500D01*
X029400D01*
X029300Y038600D01*
Y038900D01*
Y038700D02*
X029100Y038500D01*
X029600Y038300D02*
X029700Y038200D01*
Y038000D01*
X029600Y037900D01*
X029500D01*
X029400Y038000D01*
Y038100D01*
Y038000D01*
X029300Y037900D01*
X029200D01*
X029100Y038000D01*
Y038200D01*
X029200Y038300D01*
X020851Y020700D02*
X020751Y020800D01*
X020551D01*
X020451Y020700D01*
Y020600D01*
X020551Y020500D01*
X020751D01*
X020851Y020400D01*
Y020300D01*
X020751Y020200D01*
X020551D01*
X020451Y020300D01*
X021051Y020200D02*
X021251D01*
X021151D01*
Y020600D01*
X021051D01*
X021751Y020000D02*
X021851D01*
X021951Y020100D01*
Y020600D01*
X021651D01*
X021551Y020500D01*
Y020300D01*
X021651Y020200D01*
X021951D01*
X022151D02*
Y020600D01*
X022450D01*
X022550Y020500D01*
Y020200D01*
X022850Y020600D02*
X023050D01*
X023150Y020500D01*
Y020200D01*
X022850D01*
X022750Y020300D01*
X022850Y020400D01*
X023150D01*
X023350Y020200D02*
X023550D01*
X023450D01*
Y020800D01*
X023350D01*
X024450D02*
Y020200D01*
X024750D01*
X024850Y020300D01*
Y020400D01*
X024750Y020500D01*
X024450D01*
X024750D01*
X024850Y020600D01*
Y020700D01*
X024750Y020800D01*
X024450D01*
X025050Y020600D02*
Y020300D01*
X025150Y020200D01*
X025450D01*
Y020600D01*
X025749Y020200D02*
Y020700D01*
Y020500D01*
X025649D01*
X025849D01*
X025749D01*
Y020700D01*
X025849Y020800D01*
X026249Y020200D02*
Y020700D01*
Y020500D01*
X026149D01*
X026349D01*
X026249D01*
Y020700D01*
X026349Y020800D01*
X026949Y020200D02*
X026749D01*
X026649Y020300D01*
Y020500D01*
X026749Y020600D01*
X026949D01*
X027049Y020500D01*
Y020400D01*
X026649D01*
X027249Y020600D02*
Y020200D01*
Y020400D01*
X027349Y020500D01*
X027449Y020600D01*
X027549D01*
X031800Y009100D02*
Y008500D01*
X032100D01*
X032200Y008600D01*
Y009000D01*
X032100Y009100D01*
X031800D01*
X032400Y008500D02*
X032600D01*
X032500D01*
Y009100D01*
X032400Y009000D01*
X028240Y028110D02*
X028140Y028210D01*
X027940D01*
X027840Y028110D01*
Y027710D01*
X027940Y027610D01*
X028140D01*
X028240Y027710D01*
X028840Y028210D02*
X028640Y028110D01*
X028440Y027910D01*
Y027710D01*
X028540Y027610D01*
X028740D01*
X028840Y027710D01*
Y027810D01*
X028740Y027910D01*
X028440D01*
X037100Y031700D02*
X036500D01*
Y031400D01*
X036600Y031300D01*
X037000D01*
X037100Y031400D01*
Y031700D01*
Y030700D02*
Y031100D01*
X036800D01*
X036900Y030900D01*
Y030800D01*
X036800Y030700D01*
X036600D01*
X036500Y030800D01*
Y031000D01*
X036600Y031100D01*
X030300Y018400D02*
Y018800D01*
X030200Y018900D01*
X030000D01*
X029900Y018800D01*
Y018400D01*
X030000Y018300D01*
X030200D01*
X030100Y018500D02*
X030300Y018300D01*
X030200D02*
X030300Y018400D01*
X030500Y018800D02*
X030600Y018900D01*
X030800D01*
X030900Y018800D01*
Y018700D01*
X030800Y018600D01*
X030700D01*
X030800D01*
X030900Y018500D01*
Y018400D01*
X030800Y018300D01*
X030600D01*
X030500Y018400D01*
X035300Y031950D02*
X035900D01*
Y031650D01*
X035800Y031550D01*
X035600D01*
X035500Y031650D01*
Y031950D01*
Y031750D02*
X035300Y031550D01*
Y031350D02*
Y031150D01*
Y031250D01*
X035900D01*
X035800Y031350D01*
X035900Y030450D02*
X035800Y030650D01*
X035600Y030850D01*
X035400D01*
X035300Y030750D01*
Y030550D01*
X035400Y030450D01*
X035500D01*
X035600Y030550D01*
Y030850D01*
X029500Y030950D02*
X030100D01*
Y030650D01*
X030000Y030550D01*
X029800D01*
X029700Y030650D01*
Y030950D01*
Y030750D02*
X029500Y030550D01*
Y030350D02*
Y030150D01*
Y030250D01*
X030100D01*
X030000Y030350D01*
X030100Y029450D02*
Y029850D01*
X029800D01*
X029900Y029650D01*
Y029550D01*
X029800Y029450D01*
X029600D01*
X029500Y029550D01*
Y029750D01*
X029600Y029850D01*
X029500Y024350D02*
X030100D01*
Y024050D01*
X030000Y023950D01*
X029800D01*
X029700Y024050D01*
Y024350D01*
Y024150D02*
X029500Y023950D01*
Y023750D02*
Y023550D01*
Y023650D01*
X030100D01*
X030000Y023750D01*
X029500Y022850D02*
Y023250D01*
X029900Y022850D01*
X030000D01*
X030100Y022950D01*
Y023150D01*
X030000Y023250D01*
X013700Y019550D02*
X014300D01*
Y019250D01*
X014200Y019150D01*
X014000D01*
X013900Y019250D01*
Y019550D01*
Y019350D02*
X013700Y019150D01*
Y018950D02*
Y018750D01*
Y018850D01*
X014300D01*
X014200Y018950D01*
X013700Y018150D02*
X014300D01*
X014000Y018450D01*
Y018050D01*
X032100Y041200D02*
Y041600D01*
X032000Y041700D01*
X031800D01*
X031700Y041600D01*
Y041200D01*
X031800Y041100D01*
X032000D01*
X031900Y041300D02*
X032100Y041100D01*
X032000D02*
X032100Y041200D01*
X032700Y041100D02*
X032300D01*
X032700Y041500D01*
Y041600D01*
X032600Y041700D01*
X032400D01*
X032300Y041600D01*
X036800Y026200D02*
Y026600D01*
X036700Y026700D01*
X036500D01*
X036400Y026600D01*
Y026200D01*
X036500Y026100D01*
X036700D01*
X036600Y026300D02*
X036800Y026100D01*
X036700D02*
X036800Y026200D01*
X037000Y026100D02*
X037200D01*
X037100D01*
Y026700D01*
X037000Y026600D01*
X035300Y027150D02*
X035900D01*
Y026850D01*
X035800Y026750D01*
X035600D01*
X035500Y026850D01*
Y027150D01*
Y026950D02*
X035300Y026750D01*
Y026550D02*
Y026350D01*
Y026450D01*
X035900D01*
X035800Y026550D01*
Y026050D02*
X035900Y025950D01*
Y025750D01*
X035800Y025650D01*
X035400D01*
X035300Y025750D01*
Y025950D01*
X035400Y026050D01*
X035800D01*
X037700Y022512D02*
X038300D01*
Y022212D01*
X038200Y022112D01*
X038000D01*
X037900Y022212D01*
Y022512D01*
Y022312D02*
X037700Y022112D01*
X037800Y021912D02*
X037700Y021812D01*
Y021612D01*
X037800Y021512D01*
X038200D01*
X038300Y021612D01*
Y021812D01*
X038200Y021912D01*
X038100D01*
X038000Y021812D01*
Y021512D01*
X036500Y022650D02*
X037100D01*
Y022350D01*
X037000Y022250D01*
X036800D01*
X036700Y022350D01*
Y022650D01*
Y022450D02*
X036500Y022250D01*
Y022050D02*
Y021850D01*
Y021950D01*
X037100D01*
X037000Y022050D01*
X036500Y021550D02*
Y021350D01*
Y021450D01*
X037100D01*
X037000Y021550D01*
X035300Y021550D02*
X035900D01*
Y021250D01*
X035800Y021150D01*
X035600D01*
X035500Y021250D01*
Y021550D01*
Y021350D02*
X035300Y021150D01*
Y020950D02*
Y020750D01*
Y020850D01*
X035900D01*
X035800Y020950D01*
Y020450D02*
X035900Y020350D01*
Y020150D01*
X035800Y020050D01*
X035700D01*
X035600Y020150D01*
Y020250D01*
Y020150D01*
X035500Y020050D01*
X035400D01*
X035300Y020150D01*
Y020350D01*
X035400Y020450D01*
X017100Y019300D02*
X016500D01*
Y019000D01*
X016600Y018900D01*
X017000D01*
X017100Y019000D01*
Y019300D01*
X017000Y018700D02*
X017100Y018600D01*
Y018400D01*
X017000Y018300D01*
X016900D01*
X016800Y018400D01*
Y018500D01*
Y018400D01*
X016700Y018300D01*
X016600D01*
X016500Y018400D01*
Y018600D01*
X016600Y018700D01*
X013100Y019500D02*
X012500D01*
Y019200D01*
X012600Y019100D01*
X013000D01*
X013100Y019200D01*
Y019500D01*
X012500Y018500D02*
Y018900D01*
X012900Y018500D01*
X013000D01*
X013100Y018600D01*
Y018800D01*
X013000Y018900D01*
X034100Y014100D02*
Y014700D01*
X034400D01*
X034500Y014600D01*
Y014400D01*
X034400Y014300D01*
X034100D01*
X034300D02*
X034500Y014100D01*
X034700Y014600D02*
X034800Y014700D01*
X035000D01*
X035100Y014600D01*
Y014500D01*
X035000Y014400D01*
X035100Y014300D01*
Y014200D01*
X035000Y014100D01*
X034800D01*
X034700Y014200D01*
Y014300D01*
X034800Y014400D01*
X034700Y014500D01*
Y014600D01*
X034800Y014400D02*
X035000D01*
X028900Y030500D02*
X028300D01*
Y030200D01*
X028400Y030100D01*
X028800D01*
X028900Y030200D01*
Y030500D01*
X028300Y029600D02*
X028900D01*
X028600Y029900D01*
Y029500D01*
X015300Y019300D02*
X015900D01*
Y019000D01*
X015800Y018900D01*
X015600D01*
X015500Y019000D01*
Y019300D01*
Y019100D02*
X015300Y018900D01*
Y018400D02*
X015900D01*
X015600Y018700D01*
Y018300D01*
X018700Y018000D02*
X019300D01*
Y017700D01*
X019200Y017600D01*
X019000D01*
X018900Y017700D01*
Y018000D01*
Y017800D02*
X018700Y017600D01*
Y017400D02*
Y017200D01*
Y017300D01*
X019300D01*
X019200Y017400D01*
X026300Y029700D02*
X026900D01*
Y029400D01*
X026800Y029300D01*
X026600D01*
X026500Y029400D01*
Y029700D01*
Y029500D02*
X026300Y029300D01*
Y028700D02*
Y029100D01*
X026700Y028700D01*
X026800D01*
X026900Y028800D01*
Y029000D01*
X026800Y029100D01*
X030900Y036900D02*
X031500D01*
Y036600D01*
X031400Y036500D01*
X031200D01*
X031100Y036600D01*
Y036900D01*
Y036700D02*
X030900Y036500D01*
X031500Y036300D02*
Y035900D01*
X031400D01*
X031000Y036300D01*
X030900D01*
X026100Y016100D02*
Y016700D01*
X026400D01*
X026500Y016600D01*
Y016400D01*
X026400Y016300D01*
X026100D01*
X026300D02*
X026500Y016100D01*
X027100Y016700D02*
X026700D01*
Y016400D01*
X026900Y016500D01*
X027000D01*
X027100Y016400D01*
Y016200D01*
X027000Y016100D01*
X026800D01*
X026700Y016200D01*
X028900Y017500D02*
Y018100D01*
X029200D01*
X029300Y018000D01*
Y017800D01*
X029200Y017700D01*
X028900D01*
X029100D02*
X029300Y017500D01*
X029900Y018100D02*
X029700Y018000D01*
X029500Y017800D01*
Y017600D01*
X029600Y017500D01*
X029800D01*
X029900Y017600D01*
Y017700D01*
X029800Y017800D01*
X029500D01*
G54D15*
X013050Y003612D02*
X029050D01*
Y011612D01*
X013050Y003612D02*
Y011612D01*
Y014596D02*
X029050D01*
X006784Y040401D02*
X007756D01*
X006784D02*
Y042999D01*
X007756D01*
X008544Y040401D02*
X009540D01*
Y042999D01*
X008544D02*
X009540D01*
G54D16*
X041440Y040870D02*
Y043040D01*
X045460D01*
Y040870D02*
Y043040D01*
X041440Y040870D02*
X042960D01*
X044340D02*
X045460D01*
X024473Y004780D02*
X024367D01*
X024420D01*
Y004513D01*
X024367Y004460D01*
X024313D01*
X024260Y004513D01*
X024580Y004780D02*
Y004460D01*
X024793D01*
X025113Y004727D02*
X025060Y004780D01*
X024953D01*
X024900Y004727D01*
Y004513D01*
X024953Y004460D01*
X025060D01*
X025113Y004513D01*
X025433Y004780D02*
X025326D01*
X025380D01*
Y004513D01*
X025326Y004460D01*
X025273D01*
X025220Y004513D01*
X025540Y004780D02*
Y004460D01*
X025753D01*
X026073Y004727D02*
X026019Y004780D01*
X025913D01*
X025859Y004727D01*
Y004513D01*
X025913Y004460D01*
X026019D01*
X026073Y004513D01*
X026393Y004780D02*
X026286D01*
X026339D01*
Y004513D01*
X026286Y004460D01*
X026233D01*
X026179Y004513D01*
X026499Y004780D02*
Y004460D01*
X026713D01*
X027032Y004727D02*
X026979Y004780D01*
X026872D01*
X026819Y004727D01*
Y004513D01*
X026872Y004460D01*
X026979D01*
X027032Y004513D01*
X027352Y004780D02*
X027246D01*
X027299D01*
Y004513D01*
X027246Y004460D01*
X027192D01*
X027139Y004513D01*
X027459Y004780D02*
Y004460D01*
X027672D01*
X027992Y004727D02*
X027939Y004780D01*
X027832D01*
X027779Y004727D01*
Y004513D01*
X027832Y004460D01*
X027939D01*
X027992Y004513D01*
G54D17*
X051337Y041270D02*
X051470D01*
X051537Y041203D01*
Y041003D01*
X051337D01*
X051270Y041070D01*
X051337Y041137D01*
X051537D01*
X051803Y040870D02*
X051870D01*
X051936Y040937D01*
Y041270D01*
X051737D01*
X051670Y041203D01*
Y041070D01*
X051737Y041003D01*
X051936D01*
X052136Y041270D02*
X052270D01*
X052336Y041203D01*
Y041003D01*
X052136D01*
X052070Y041070D01*
X052136Y041137D01*
X052336D01*
X052470Y041003D02*
Y041270D01*
X052670D01*
X052736Y041203D01*
Y041003D01*
X053536Y041403D02*
X053269D01*
Y041003D01*
X053536D01*
X053269Y041203D02*
X053403D01*
X053669Y041003D02*
Y041270D01*
X053869D01*
X053936Y041203D01*
Y041003D01*
X054202Y040870D02*
X054269D01*
X054336Y040937D01*
Y041270D01*
X054136D01*
X054069Y041203D01*
Y041070D01*
X054136Y041003D01*
X054336D01*
X054469D02*
X054602D01*
X054536D01*
Y041270D01*
X054469D01*
X054802Y041003D02*
Y041270D01*
X055002D01*
X055069Y041203D01*
Y041003D01*
X055402D02*
X055269D01*
X055202Y041070D01*
Y041203D01*
X055269Y041270D01*
X055402D01*
X055469Y041203D01*
Y041137D01*
X055202D01*
X055802Y041003D02*
X055669D01*
X055602Y041070D01*
Y041203D01*
X055669Y041270D01*
X055802D01*
X055869Y041203D01*
Y041137D01*
X055602D01*
X056002Y041270D02*
Y041003D01*
Y041137D01*
X056068Y041203D01*
X056135Y041270D01*
X056202D01*
X056402Y041003D02*
X056535D01*
X056468D01*
Y041270D01*
X056402D01*
X056735Y041003D02*
Y041270D01*
X056935D01*
X057001Y041203D01*
Y041003D01*
X057268Y040870D02*
X057335D01*
X057401Y040937D01*
Y041270D01*
X057201D01*
X057135Y041203D01*
Y041070D01*
X057201Y041003D01*
X057401D01*
X008320Y016030D02*
X007920D01*
Y015763D01*
X008253Y015364D02*
X008320Y015430D01*
Y015563D01*
X008253Y015630D01*
X008187D01*
X008120Y015563D01*
Y015430D01*
X008053Y015364D01*
X007987D01*
X007920Y015430D01*
Y015563D01*
X007987Y015630D01*
X008320Y014830D02*
X007920D01*
Y014630D01*
X007987Y014564D01*
X008253D01*
X008320Y014630D01*
Y014830D01*
X008187Y014431D02*
X007920D01*
X008053D01*
X008120Y014364D01*
X008187Y014297D01*
Y014231D01*
X007920Y014031D02*
Y013897D01*
Y013964D01*
X008187D01*
Y014031D01*
Y013697D02*
X007920Y013564D01*
X008187Y013431D01*
X007920Y013098D02*
Y013231D01*
X007987Y013298D01*
X008120D01*
X008187Y013231D01*
Y013098D01*
X008120Y013031D01*
X008053D01*
Y013298D01*
X008187Y012898D02*
X007920D01*
X008053D01*
X008120Y012831D01*
X008187Y012764D01*
Y012698D01*
G54D18*
X046750Y040550D02*
X047250D01*
X047000D01*
Y039800D01*
X047500Y040300D02*
Y039800D01*
Y040050D01*
X047625Y040175D01*
X047750Y040300D01*
X047875D01*
X048374Y039800D02*
X048624D01*
X048749Y039925D01*
Y040175D01*
X048624Y040300D01*
X048374D01*
X048250Y040175D01*
Y039925D01*
X048374Y039800D01*
X048999Y039550D02*
X049124D01*
X049249Y039675D01*
Y040300D01*
X049874D02*
X050124D01*
X050249Y040175D01*
Y039800D01*
X049874D01*
X049749Y039925D01*
X049874Y040050D01*
X050249D01*
X050499Y039800D02*
Y040300D01*
X050874D01*
X050999Y040175D01*
Y039800D01*
X052498Y040550D02*
X051998D01*
Y039800D01*
X052498D01*
X051998Y040175D02*
X052248D01*
X053248Y040550D02*
X052748D01*
Y040175D01*
X052998D01*
X052748D01*
Y039800D01*
X053498Y040550D02*
X053748D01*
X053623D01*
Y039800D01*
X053498D01*
X053748D01*
X054872Y040550D02*
Y039800D01*
X055247D01*
X055372Y039925D01*
Y040425D01*
X055247Y040550D01*
X054872D01*
X055747Y040300D02*
X055997D01*
X056122Y040175D01*
Y039800D01*
X055747D01*
X055622Y039925D01*
X055747Y040050D01*
X056122D01*
X056372Y039800D02*
X056747D01*
X056872Y039925D01*
X056747Y040050D01*
X056497D01*
X056372Y040175D01*
X056497Y040300D01*
X056872D01*
X057122Y040550D02*
Y039800D01*
Y040175D01*
X057247Y040300D01*
X057497D01*
X057621Y040175D01*
Y039800D01*
G54D19*
X048499Y043499D02*
X047700D01*
X048100D01*
Y041500D01*
X047700Y041100D01*
X047300D01*
X046900Y041500D01*
X050899Y043499D02*
X049299D01*
Y041100D01*
X050899D01*
X049299Y042300D02*
X050099D01*
G54D20*
X014855Y041405D02*
X015249D01*
X015052Y041602D02*
Y041208D01*
X035195Y014661D02*
Y015055D01*
X034998Y014858D02*
X035392D01*
G54D21*
X032200Y009972D02*
D03*
M02*
