M48
;Layer_Color=9474304
;FILE_FORMAT=2:4
INCH
;TYPE=PLATED
T1F00S00C0.0140
T2F00S00C0.0260
T3F00S00C0.0276
T4F00S00C0.0280
T5F00S00C0.0299
T6F00S00C0.0300
T7F00S00C0.0315
T8F00S00C0.0320
T9F00S00C0.0335
T10F00S00C0.0354
T11F00S00C0.0380
T12F00S00C0.0394
T13F00S00C0.0400
T14F00S00C0.0500
T15F00S00C0.0512
T16F00S00C0.0669
T17F00S00C0.1500
;TYPE=NON_PLATED
T18F00S00C0.1250
T19F00S00C0.1260
T20F00S00C0.1299
%
T01
X016200Y026400
X015800Y027000
X017800Y024800
X018600Y024000
X019400Y023200
X009000Y027600
X008000Y036200
X034015Y036438
T02
X008150Y040700
Y042700
X009150Y041700
T03
X033000Y015708
Y016692
X035416Y018000
X036400
X036800Y029899
X028600Y028699
X028308Y026600
X029292
X016743Y020301
Y017299
X012800Y017499
Y020501
X011892Y041400
X010908
X028600Y031701
X036800Y032901
T04
X007800Y026000
T05
X021900Y027463
X022900
X023900
X024900
Y030537
X023900
X022900
X021900
T06
X013400Y009800
X037200Y027500
Y028000
Y028500
X029800Y020700
Y020200
Y019700
X031000Y039700
Y040200
Y040700
T07
X035200Y015806
Y016594
X016787Y041400
X016000
T08
X042860Y040360
X043650
X044040Y041150
X043250
T09
X026028Y015400
X029572
X032828Y014400
X036372
X035600Y019028
X036800Y020228
X038000
Y023772
X036800
X035600Y024628
Y022572
Y028172
Y029428
X031543Y016800
X028000
X029800Y021828
Y025372
Y028428
X026600Y027228
Y030772
X018000Y020572
Y017028
X015600
X014000
Y020572
X015600
X029800Y031972
X031200Y034600
Y038143
X029400Y036628
Y040172
X035600Y032972
T10
X008150Y008700
X009150
X010150
X009650Y009700
X008650
X007650
X034200Y019600
Y020600
Y021600
Y022600
Y023600
Y024600
Y025600
Y026600
Y027600
Y028600
Y029600
Y030600
X031200
Y029600
Y028600
Y027600
Y026600
Y025600
Y024600
Y023600
Y022600
Y021600
Y020600
Y019600
Y031600
Y032600
X034200
Y031600
T11
X004700Y033250
X005700
X006700
X007700
X008700
X009700
Y034250
Y035250
Y036250
Y037250
Y038250
Y039250
X008700
X007700
X006700
X005700
X004700
X010700
X011700
X012700
X013700
X014700
Y033250
X013700
X012700
X011700
X010700
X015700
X016700
X017700
X018700
X019700
X020700
X021700
X022700
Y034250
X023700
X024700
Y033250
X025700
X026700
Y034250
X027700Y033250
X023700
X023200Y038000
X022200
X021200
X020700Y039250
X019700
X018700
X017700
X016700
X015700
X021700
X022700
X023700
X024700
X025700
X026700
X027700
X025200Y038000
X024200
T12
X037200Y005000
X038200
X039200
X014787Y042945
X013787
X012787
X011787
X010787
X015787
X016787
X017787
X018787
X019787
X020787
X021787
X022787
X023787
X024787
X025787
X026787
X027787
X028787
X029787
X030787
X031787
T13
X006600Y013000
Y014000
Y015000
X009600
Y014000
Y013000
X040000Y015000
X041000
X042000
Y014000
X043000
X044000
X045000
X046000
Y013000
X045000
X044000
X043000
Y012000
X044000
X045000
X046000
Y011000
X045000
X044000
X043000
Y010000
X044000
X045000
X046000
Y009000
Y008000
Y007000
X045000
X044000
X043000
X042000
Y008000
Y009000
Y010000
Y011000
Y012000
Y013000
X043000Y015000
X044000
X045000
X046000
X045000Y009000
Y008000
X044000
X043000
Y009000
X044000
X047000
Y010000
X048000
Y011000
Y012000
Y013000
Y014000
X049000
X050000
X051000
X052000
X053000
X054000
X055000
X056000
X057000
Y013000
X056000
X055000
X054000
X053000
Y012000
X054000
X055000
X056000
X057000
Y011000
X056000
X055000
X054000
X053000
Y010000
X054000
X055000
X056000
X057000
Y009000
Y008000
Y007000
X056000
X055000
X054000
X053000
X052000
X051000
X050000
X049000
X048000
X047000
Y008000
X048000
X049000
X050000
X051000
X052000
Y009000
Y010000
Y011000
Y012000
Y013000
X051000
X050000
X049000
Y012000
X050000
X051000
Y011000
X050000
X049000
Y010000
X050000
X051000
Y009000
X050000
X049000
X048000
X047000Y011000
Y012000
Y013000
Y014000
Y015000
X048000
X049000
X050000
X051000
X052000
X053000
X054000
X055000
X056000
X057000
X058000
Y014000
Y013000
Y012000
Y011000
Y010000
Y009000
Y008000
Y007000
X056000Y008000
X055000
X054000
X053000
Y009000
X054000
X055000
X056000
Y016000
Y017000
Y018000
X057000
X058000
Y019000
Y020000
Y021000
Y022000
Y023000
Y024000
Y025000
Y026000
Y027000
Y028000
Y029000
Y030000
Y031000
X057000
X056000
X055000
X054000
X053000
Y030000
X054000
X055000
X056000
X057000
Y029000
Y028000
Y027000
Y026000
Y025000
Y024000
X056000
X055000
X054000
X053000
X052000
X051000
X050000
X049000
X048000
X047000
Y025000
Y026000
Y027000
Y028000
X048000
Y027000
Y026000
Y025000
X049000
X050000
X051000
X052000
Y026000
X051000
X050000
X049000
Y027000
X050000
X051000
X052000
Y028000
X051000
X050000
X049000
Y029000
Y030000
Y031000
X050000
X051000
X052000
Y030000
X051000
X050000
Y029000
X051000
X052000
X053000
Y028000
Y027000
Y026000
Y025000
X054000
X055000
X056000
Y026000
X055000
X054000
Y027000
X055000
X056000
Y028000
X055000
X054000
Y029000
X055000
X056000
Y023000
Y022000
Y021000
Y020000
Y019000
X055000
Y018000
X054000
X053000
Y017000
X054000
X055000
Y016000
X054000
X053000
X052000
Y017000
Y018000
X051000
X050000
X049000
X048000
Y017000
X049000
X050000
X051000
Y016000
X050000
X049000
X048000
X047000
Y017000
Y018000
Y019000
Y020000
Y021000
Y022000
Y023000
X048000
Y022000
Y021000
Y020000
Y019000
X049000
X050000
X051000
X052000
Y020000
X051000
X050000
X049000
Y021000
X050000
X051000
X052000
Y022000
X051000
X050000
X049000
Y023000
X050000
X051000
X052000
X053000
Y022000
Y021000
Y020000
Y019000
X054000
Y020000
X055000
Y021000
X054000
Y022000
X055000
Y023000
X054000
X057000
Y022000
Y021000
Y020000
Y019000
Y017000
X058000
Y016000
X057000
X048000Y029000
Y030000
Y031000
X047000
Y030000
Y029000
X046000
Y028000
X045000
X044000
X043000
X042000
Y029000
X041000
X040000
Y030000
Y031000
X041000
Y030000
X042000
Y031000
X043000
X044000
X045000
X046000
Y030000
X045000
X044000
X043000
Y029000
X044000
X045000
Y027000
X046000
Y026000
X045000
X044000
Y027000
X043000
X042000
Y026000
Y025000
Y024000
Y023000
X041000
X040000
Y022000
Y021000
Y020000
Y019000
Y018000
Y017000
Y016000
X041000
X042000
X043000
Y017000
Y018000
X044000
X045000
X046000
Y017000
X045000
X044000
Y016000
X045000
X046000
Y019000
X045000
X044000
X043000
X042000
Y018000
Y017000
X041000
Y018000
Y019000
Y020000
Y021000
Y022000
X042000
Y021000
Y020000
X043000
X044000
X045000
X046000
Y021000
X045000
X044000
X043000
Y022000
X044000
X045000
X046000
Y023000
Y024000
Y025000
X045000
X044000
X043000
Y026000
X041000
X040000
Y025000
Y024000
X041000
Y025000
Y027000
X040000
Y028000
X041000
X043000Y024000
X044000
X045000
Y023000
X044000
X043000
X028000Y022400
X027000
X026000
X025000
X024000
X023000
X022000
X021000
X020000
Y018400
X021000
X022000
X023000
X024000
X025000
X026000
X027000
X028000
X009600Y016000
X006600
X040000Y032000
Y033000
Y034000
Y035000
Y036000
Y037000
Y038000
X041000
X042000
Y037000
X041000
Y036000
X042000
Y035000
X041000
Y034000
X042000
Y033000
Y032000
X041000
Y033000
X043000
X044000
X045000
X046000
Y032000
X045000
X044000
X043000
Y034000
X044000
X045000
X046000
Y035000
X045000
X044000
X043000
Y036000
X044000
X045000
X046000
Y037000
X045000
X044000
X043000
Y038000
X044000
X045000
X046000
X047000
X048000
X049000
X050000
X051000
X052000
X053000
X054000
X055000
X056000
X057000
X058000
Y037000
Y036000
Y035000
Y034000
Y033000
Y032000
X057000
Y033000
X056000
X055000
X054000
X053000
Y032000
X054000
X055000
X056000
Y034000
Y035000
Y036000
Y037000
X057000
Y036000
Y035000
Y034000
X055000
Y035000
Y036000
Y037000
X054000
X053000
Y036000
X054000
Y035000
X053000
Y034000
X054000
X052000
Y033000
X051000
X050000
X049000
X048000
Y032000
X049000
X050000
X051000
X052000
Y035000
Y036000
Y037000
X051000
X050000
X049000
X048000
Y036000
X049000
X050000
X051000
Y035000
X050000
X049000
X048000
Y034000
X049000
X050000
X051000
X047000
Y033000
Y032000
Y035000
Y036000
Y037000
T14
X005329Y026600
X013400
T15
X015050Y012100
Y013100
X016050
Y012100
X017050
X018050
Y013100
X019050
X020050
X021050
X022050
X023050
X024050
X025050
X026050
X027050
Y012100
X026050
X025050
X024050
X023050
X022050
X021050
X020050
X019050
X017050Y013100
T16
X032200Y004491
Y011909
T17
X038200Y011600
T18
X004685Y004378
X058622
X004700Y042550
X058622Y042567
T19
X006900Y006200
X010900
T20
X013050Y013100
X029050
M30
